Roboto Serif Text-Light Italic.ufo
<glyph name="dollar" format="1">
  <advance width="560"/>
  <unicode hex="0024"/>
  <outline>
    <contour>
      <point x="266" y="10" type="curve" smooth="yes"/>
      <point x="398" y="10"/>
      <point x="495" y="81"/>
      <point x="495" y="203" type="curve" smooth="yes"/>
      <point x="495" y="306"/>
      <point x="404" y="351"/>
      <point x="324" y="387" type="curve" smooth="yes"/>
      <point x="323" y="387" type="line"/>
      <point x="370" y="654" type="line"/>
      <point x="413" y="650"/>
      <point x="449" y="639"/>
      <point x="474" y="620" type="curve"/>
      <point x="460" y="539" type="line"/>
      <point x="529" y="539" type="line"/>
      <point x="545" y="632" type="line"/>
      <point x="518" y="660"/>
      <point x="461" y="689"/>
      <point x="378" y="696" type="curve"/>
      <point x="394" y="788" type="line"/>
      <point x="347" y="788" type="line"/>
      <point x="331" y="698" type="line"/>
      <point x="197" y="698"/>
      <point x="114" y="632"/>
      <point x="114" y="528" type="curve" smooth="yes"/>
      <point x="114" y="428"/>
      <point x="193" y="386"/>
      <point x="269" y="350" type="curve"/>
      <point x="217" y="55" type="line"/>
      <point x="160" y="63"/>
      <point x="111" y="83"/>
      <point x="79" y="116" type="curve"/>
      <point x="93" y="200" type="line"/>
      <point x="23" y="200" type="line"/>
      <point x="8" y="112" type="line"/>
      <point x="42" y="69"/>
      <point x="112" y="26"/>
      <point x="210" y="13" type="curve"/>
      <point x="187" y="-120" type="line"/>
      <point x="234" y="-120" type="line"/>
      <point x="256" y="10" type="line"/>
      <point x="259" y="10"/>
      <point x="263" y="10"/>
    </contour>
    <contour>
      <point x="170" y="534" type="curve" smooth="yes"/>
      <point x="170" y="606"/>
      <point x="222" y="653"/>
      <point x="323" y="656" type="curve"/>
      <point x="279" y="407" type="line"/>
      <point x="218" y="437"/>
      <point x="170" y="469"/>
    </contour>
    <contour>
      <point x="437" y="196" type="curve" smooth="yes"/>
      <point x="437" y="103"/>
      <point x="371" y="52"/>
      <point x="269" y="52" type="curve" smooth="yes"/>
      <point x="264" y="52" type="line"/>
      <point x="313" y="330" type="line"/>
      <point x="379" y="299"/>
      <point x="437" y="268"/>
    </contour>
  </outline>
</glyph>
<glyph name="slash" format="1">
  <advance width="449"/>
  <unicode hex="002F"/>
  <outline>
    <contour>
      <point x="480" y="750" type="line"/>
      <point x="-78" y="-129" type="line"/>
      <point x="-23" y="-129" type="line"/>
      <point x="535" y="750" type="line"/>
    </contour>
  </outline>
</glyph>
<glyph name="five" format="1">
  <advance width="560"/>
  <unicode hex="0035"/>
  <outline>
    <contour>
      <point x="245" y="-90" type="curve" smooth="yes"/>
      <point x="404" y="-90"/>
      <point x="504" y="23"/>
      <point x="504" y="164" type="curve" smooth="yes"/>
      <point x="504" y="279"/>
      <point x="428" y="366"/>
      <point x="301" y="366" type="curve" smooth="yes"/>
      <point x="240" y="366"/>
      <point x="188" y="345"/>
      <point x="149" y="305" type="curve"/>
      <point x="193" y="553" type="line"/>
      <point x="500" y="553" type="line"/>
      <point x="521" y="609" type="line"/>
      <point x="156" y="609" type="line"/>
      <point x="90" y="240" type="line"/>
      <point x="129" y="240" type="line"/>
      <point x="169" y="293"/>
      <point x="218" y="322"/>
      <point x="291" y="322" type="curve" smooth="yes"/>
      <point x="385" y="322"/>
      <point x="437" y="259"/>
      <point x="437" y="164" type="curve" smooth="yes"/>
      <point x="437" y="43"/>
      <point x="365" y="-46"/>
      <point x="246" y="-46" type="curve" smooth="yes"/>
      <point x="135" y="-46"/>
      <point x="76" y="29"/>
      <point x="53" y="100" type="curve"/>
      <point x="11" y="73" type="line"/>
      <point x="38" y="-16"/>
      <point x="116" y="-90"/>
    </contour>
  </outline>
</glyph>
<glyph name="equal" format="1">
  <advance width="560"/>
  <unicode hex="003D"/>
  <outline>
    <contour>
      <point x="505" y="439" type="line"/>
      <point x="112" y="439" type="line"/>
      <point x="104" y="394" type="line"/>
      <point x="496" y="394" type="line"/>
    </contour>
    <contour>
      <point x="474" y="260" type="line"/>
      <point x="81" y="260" type="line"/>
      <point x="73" y="215" type="line"/>
      <point x="465" y="215" type="line"/>
    </contour>
  </outline>
</glyph>
<glyph name="greater" format="1">
  <advance width="560"/>
  <unicode hex="003E"/>
  <outline>
    <contour>
      <point x="141" y="544" type="line"/>
      <point x="130" y="491" type="line"/>
      <point x="427" y="342" type="line"/>
      <point x="87" y="191" type="line"/>
      <point x="77" y="135" type="line"/>
      <point x="479" y="313" type="line"/>
      <point x="489" y="366" type="line"/>
    </contour>
  </outline>
</glyph>
<glyph name="question" format="1">
  <advance width="523"/>
  <unicode hex="003F"/>
  <outline>
    <contour>
      <point x="208" y="362" type="curve"/>
      <point x="180" y="203" type="line"/>
      <point x="233" y="203" type="line"/>
      <point x="255" y="332" type="line"/>
      <point x="376" y="354"/>
      <point x="498" y="412"/>
      <point x="498" y="551" type="curve" smooth="yes"/>
      <point x="498" y="657"/>
      <point x="415" y="718"/>
      <point x="298" y="718" type="curve" smooth="yes"/>
      <point x="207" y="718"/>
      <point x="142" y="681"/>
      <point x="111" y="657" type="curve"/>
      <point x="93" y="551" type="line"/>
      <point x="159" y="551" type="line"/>
      <point x="175" y="641" type="line"/>
      <point x="207" y="660"/>
      <point x="246" y="674"/>
      <point x="295" y="674" type="curve" smooth="yes"/>
      <point x="382" y="674"/>
      <point x="432" y="630"/>
      <point x="432" y="553" type="curve" smooth="yes"/>
      <point x="432" y="435"/>
      <point x="349" y="387"/>
    </contour>
    <contour>
      <point x="240" y="41" type="curve" smooth="yes"/>
      <point x="240" y="71"/>
      <point x="218" y="91"/>
      <point x="187" y="91" type="curve" smooth="yes"/>
      <point x="157" y="91"/>
      <point x="135" y="71"/>
      <point x="135" y="41" type="curve" smooth="yes"/>
      <point x="135" y="11"/>
      <point x="157" y="-8"/>
      <point x="187" y="-8" type="curve" smooth="yes"/>
      <point x="218" y="-8"/>
      <point x="240" y="11"/>
    </contour>
  </outline>
</glyph>
<glyph name="A" format="1">
  <advance width="667"/>
  <unicode hex="0041"/>
  <outline>
    <contour>
      <point x="-48" y="0" type="line"/>
      <point x="173" y="0" type="line"/>
      <point x="180" y="38" type="line"/>
      <point x="165" y="38" type="line" smooth="yes"/>
      <point x="127" y="38"/>
      <point x="82" y="45"/>
      <point x="83" y="56" type="curve"/>
      <point x="185" y="258" type="line"/>
      <point x="449" y="258" type="line"/>
      <point x="482" y="48" type="line"/>
      <point x="481" y="41"/>
      <point x="433" y="38"/>
      <point x="395" y="38" type="curve" smooth="yes"/>
      <point x="378" y="38" type="line"/>
      <point x="370" y="0" type="line"/>
      <point x="603" y="0" type="line"/>
      <point x="610" y="38" type="line"/>
      <point x="605" y="38" type="line"/>
      <point x="570" y="38"/>
      <point x="548" y="40"/>
      <point x="544" y="68" type="curve" smooth="yes"/>
      <point x="440" y="710" type="line"/>
      <point x="362" y="710" type="line"/>
      <point x="40" y="78" type="line" smooth="yes"/>
      <point x="22" y="43"/>
      <point x="0" y="38"/>
      <point x="-36" y="38" type="curve"/>
      <point x="-41" y="38" type="line"/>
    </contour>
    <contour>
      <point x="205" y="298" type="line"/>
      <point x="387" y="658" type="line"/>
      <point x="443" y="298" type="line"/>
    </contour>
    <contour>
      <point x="329" y="721" type="move" name="top"/>
    </contour>
    <contour>
      <point x="532" y="0" type="move" name="right"/>
    </contour>
    <contour>
      <point x="329" y="0" type="move" name="bottom"/>
    </contour>
  </outline>
</glyph>
<glyph name="H" format="1">
  <advance width="802"/>
  <unicode hex="0048"/>
  <outline>
    <contour>
      <point x="-13" y="0" type="line"/>
      <point x="245" y="0" type="line"/>
      <point x="252" y="38" type="line"/>
      <point x="243" y="38" type="line" smooth="yes"/>
      <point x="205" y="38"/>
      <point x="156" y="41"/>
      <point x="157" y="48" type="curve" smooth="yes"/>
      <point x="210" y="344" type="line"/>
      <point x="601" y="344" type="line"/>
      <point x="548" y="48" type="line" smooth="yes"/>
      <point x="547" y="41"/>
      <point x="498" y="38"/>
      <point x="460" y="38" type="curve" smooth="yes"/>
      <point x="451" y="38" type="line"/>
      <point x="444" y="0" type="line"/>
      <point x="700" y="0" type="line"/>
      <point x="708" y="38" type="line"/>
      <point x="697" y="38" type="line" smooth="yes"/>
      <point x="648" y="38"/>
      <point x="613" y="45"/>
      <point x="618" y="74" type="curve" smooth="yes"/>
      <point x="717" y="636" type="line" smooth="yes"/>
      <point x="722" y="665"/>
      <point x="759" y="672"/>
      <point x="808" y="672" type="curve" smooth="yes"/>
      <point x="819" y="672" type="line"/>
      <point x="827" y="710" type="line"/>
      <point x="569" y="710" type="line"/>
      <point x="562" y="672" type="line"/>
      <point x="571" y="672" type="line" smooth="yes"/>
      <point x="609" y="672"/>
      <point x="658" y="669"/>
      <point x="657" y="662" type="curve" smooth="yes"/>
      <point x="608" y="388" type="line"/>
      <point x="217" y="388" type="line"/>
      <point x="266" y="662" type="line" smooth="yes"/>
      <point x="267" y="669"/>
      <point x="316" y="672"/>
      <point x="354" y="672" type="curve" smooth="yes"/>
      <point x="363" y="672" type="line"/>
      <point x="370" y="710" type="line"/>
      <point x="114" y="710" type="line"/>
      <point x="106" y="672" type="line"/>
      <point x="117" y="672" type="line" smooth="yes"/>
      <point x="166" y="672"/>
      <point x="201" y="665"/>
      <point x="196" y="636" type="curve" smooth="yes"/>
      <point x="97" y="74" type="line" smooth="yes"/>
      <point x="92" y="45"/>
      <point x="55" y="38"/>
      <point x="6" y="38" type="curve" smooth="yes"/>
      <point x="-5" y="38" type="line"/>
    </contour>
    <contour>
      <point x="403" y="741" type="move" name="top"/>
    </contour>
    <contour>
      <point x="403" y="0" type="move" name="bottom"/>
    </contour>
  </outline>
</glyph>
<glyph name="I" format="1">
  <advance width="344"/>
  <unicode hex="0049"/>
  <outline>
    <contour>
      <point x="105" y="672" type="line"/>
      <point x="116" y="672" type="line" smooth="yes"/>
      <point x="167" y="672"/>
      <point x="200" y="665"/>
      <point x="195" y="636" type="curve" smooth="yes"/>
      <point x="96" y="72" type="line" smooth="yes"/>
      <point x="91" y="44"/>
      <point x="52" y="38"/>
      <point x="6" y="38" type="curve" smooth="yes"/>
      <point x="-5" y="38" type="line"/>
      <point x="-13" y="0" type="line"/>
      <point x="244" y="0" type="line"/>
      <point x="251" y="38" type="line"/>
      <point x="240" y="38" type="line" smooth="yes"/>
      <point x="190" y="38"/>
      <point x="156" y="45"/>
      <point x="161" y="74" type="curve" smooth="yes"/>
      <point x="260" y="638" type="line" smooth="yes"/>
      <point x="265" y="666"/>
      <point x="304" y="672"/>
      <point x="351" y="672" type="curve" smooth="yes"/>
      <point x="362" y="672" type="line"/>
      <point x="369" y="710" type="line"/>
      <point x="113" y="710" type="line"/>
    </contour>
    <contour>
      <point x="175" y="741" type="move" name="top"/>
    </contour>
    <contour>
      <point x="226" y="0" type="move" name="right"/>
    </contour>
    <contour>
      <point x="175" y="0" type="move" name="bottom"/>
    </contour>
  </outline>
</glyph>
<glyph name="O" format="1">
  <advance width="759"/>
  <unicode hex="004F"/>
  <outline>
    <contour>
      <point x="721" y="391" type="curve" smooth="yes"/>
      <point x="721" y="568"/>
      <point x="605" y="720"/>
      <point x="413" y="720" type="curve" smooth="yes"/>
      <point x="191" y="720"/>
      <point x="45" y="530"/>
      <point x="45" y="319" type="curve" smooth="yes"/>
      <point x="45" y="142"/>
      <point x="161" y="-10"/>
      <point x="353" y="-10" type="curve" smooth="yes"/>
      <point x="575" y="-10"/>
      <point x="721" y="180"/>
    </contour>
    <contour>
      <point x="113" y="319" type="curve" smooth="yes"/>
      <point x="113" y="501"/>
      <point x="221" y="676"/>
      <point x="412" y="676" type="curve" smooth="yes"/>
      <point x="575" y="676"/>
      <point x="653" y="544"/>
      <point x="653" y="391" type="curve" smooth="yes"/>
      <point x="653" y="209"/>
      <point x="545" y="34"/>
      <point x="353" y="34" type="curve" smooth="yes"/>
      <point x="191" y="34"/>
      <point x="113" y="166"/>
    </contour>
    <contour>
      <point x="380" y="741" type="move" name="top"/>
    </contour>
    <contour>
      <point x="380" y="0" type="move" name="bottom"/>
    </contour>
  </outline>
</glyph>
<glyph name="P" format="1">
  <advance width="618"/>
  <unicode hex="0050"/>
  <outline>
    <contour>
      <point x="-12" y="0" type="line"/>
      <point x="254" y="0" type="line"/>
      <point x="261" y="38" type="line"/>
      <point x="232" y="38" type="line" smooth="yes"/>
      <point x="198" y="38"/>
      <point x="155" y="41"/>
      <point x="156" y="48" type="curve" smooth="yes"/>
      <point x="200" y="292" type="line"/>
      <point x="323" y="292" type="line" smooth="yes"/>
      <point x="519" y="292"/>
      <point x="609" y="401"/>
      <point x="609" y="524" type="curve" smooth="yes"/>
      <point x="609" y="635"/>
      <point x="529" y="710"/>
      <point x="366" y="710" type="curve" smooth="yes"/>
      <point x="114" y="710" type="line"/>
      <point x="106" y="672" type="line"/>
      <point x="117" y="672" type="line" smooth="yes"/>
      <point x="169" y="672"/>
      <point x="201" y="665"/>
      <point x="196" y="636" type="curve" smooth="yes"/>
      <point x="96" y="72" type="line" smooth="yes"/>
      <point x="92" y="46"/>
      <point x="55" y="38"/>
      <point x="6" y="38" type="curve" smooth="yes"/>
      <point x="-5" y="38" type="line"/>
    </contour>
    <contour>
      <point x="207" y="335" type="line"/>
      <point x="266" y="666" type="line"/>
      <point x="366" y="666" type="line" smooth="yes"/>
      <point x="489" y="666"/>
      <point x="541" y="611"/>
      <point x="541" y="526" type="curve" smooth="yes"/>
      <point x="541" y="419"/>
      <point x="487" y="335"/>
      <point x="328" y="335" type="curve" smooth="yes"/>
    </contour>
  </outline>
</glyph>
<glyph name="V" format="1">
  <advance width="667"/>
  <unicode hex="0056"/>
  <outline>
    <contour>
      <point x="73" y="710" type="line"/>
      <point x="66" y="672" type="line"/>
      <point x="71" y="672" type="line"/>
      <point x="105" y="672"/>
      <point x="128" y="670"/>
      <point x="132" y="641" type="curve" smooth="yes"/>
      <point x="230" y="0" type="line"/>
      <point x="307" y="0" type="line"/>
      <point x="633" y="630" type="line" smooth="yes"/>
      <point x="652" y="667"/>
      <point x="673" y="672"/>
      <point x="710" y="672" type="curve"/>
      <point x="715" y="672" type="line"/>
      <point x="723" y="710" type="line"/>
      <point x="502" y="710" type="line"/>
      <point x="495" y="672" type="line"/>
      <point x="510" y="672" type="line" smooth="yes"/>
      <point x="547" y="672"/>
      <point x="595" y="665"/>
      <point x="591" y="655" type="curve"/>
      <point x="283" y="53" type="line"/>
      <point x="194" y="662" type="line"/>
      <point x="194" y="669"/>
      <point x="243" y="672"/>
      <point x="281" y="672" type="curve" smooth="yes"/>
      <point x="298" y="672" type="line"/>
      <point x="306" y="710" type="line"/>
    </contour>
  </outline>
</glyph>
<glyph name="X" format="1">
  <advance width="700"/>
  <unicode hex="0058"/>
  <outline>
    <contour>
      <point x="-41" y="0" type="line"/>
      <point x="194" y="0" type="line"/>
      <point x="201" y="38" type="line"/>
      <point x="186" y="38" type="line" smooth="yes"/>
      <point x="149" y="38"/>
      <point x="102" y="45"/>
      <point x="104" y="56" type="curve"/>
      <point x="338" y="328" type="line"/>
      <point x="486" y="48" type="line"/>
      <point x="485" y="41"/>
      <point x="439" y="38"/>
      <point x="403" y="38" type="curve" smooth="yes"/>
      <point x="386" y="38" type="line"/>
      <point x="378" y="0" type="line"/>
      <point x="619" y="0" type="line"/>
      <point x="627" y="38" type="line"/>
      <point x="617" y="38" type="line" smooth="yes"/>
      <point x="580" y="38"/>
      <point x="559" y="41"/>
      <point x="543" y="72" type="curve" smooth="yes"/>
      <point x="384" y="369" type="line"/>
      <point x="606" y="627" type="line" smooth="yes"/>
      <point x="638" y="664"/>
      <point x="666" y="672"/>
      <point x="703" y="672" type="curve" smooth="yes"/>
      <point x="708" y="672" type="line"/>
      <point x="716" y="710" type="line"/>
      <point x="486" y="710" type="line"/>
      <point x="478" y="672" type="line"/>
      <point x="493" y="672" type="line" smooth="yes"/>
      <point x="531" y="672"/>
      <point x="575" y="665"/>
      <point x="573" y="654" type="curve"/>
      <point x="362" y="405" type="line"/>
      <point x="229" y="662" type="line"/>
      <point x="230" y="669"/>
      <point x="276" y="672"/>
      <point x="312" y="672" type="curve" smooth="yes"/>
      <point x="329" y="672" type="line"/>
      <point x="337" y="710" type="line"/>
      <point x="100" y="710" type="line"/>
      <point x="93" y="672" type="line"/>
      <point x="99" y="672" type="line" smooth="yes"/>
      <point x="136" y="672"/>
      <point x="157" y="671"/>
      <point x="173" y="640" type="curve" smooth="yes"/>
      <point x="316" y="366" type="line"/>
      <point x="71" y="84" type="line" smooth="yes"/>
      <point x="38" y="46"/>
      <point x="13" y="38"/>
      <point x="-23" y="38" type="curve" smooth="yes"/>
      <point x="-33" y="38" type="line"/>
    </contour>
  </outline>
</glyph>
<glyph name="Y" format="1">
  <advance width="660"/>
  <unicode hex="0059"/>
  <outline>
    <contour>
      <point x="413" y="38" type="line"/>
      <point x="397" y="38" type="line" smooth="yes"/>
      <point x="347" y="38"/>
      <point x="313" y="45"/>
      <point x="318" y="74" type="curve" smooth="yes"/>
      <point x="356" y="290" type="line"/>
      <point x="612" y="631" type="line" smooth="yes"/>
      <point x="639" y="668"/>
      <point x="669" y="672"/>
      <point x="703" y="672" type="curve" smooth="yes"/>
      <point x="708" y="672" type="line"/>
      <point x="715" y="710" type="line"/>
      <point x="486" y="710" type="line"/>
      <point x="478" y="672" type="line"/>
      <point x="494" y="672" type="line" smooth="yes"/>
      <point x="532" y="672"/>
      <point x="576" y="665"/>
      <point x="574" y="654" type="curve"/>
      <point x="340" y="338" type="line"/>
      <point x="208" y="662" type="line"/>
      <point x="209" y="669"/>
      <point x="256" y="672"/>
      <point x="292" y="672" type="curve" smooth="yes"/>
      <point x="308" y="672" type="line"/>
      <point x="315" y="710" type="line"/>
      <point x="78" y="710" type="line"/>
      <point x="71" y="672" type="line"/>
      <point x="76" y="672" type="line" smooth="yes"/>
      <point x="110" y="672"/>
      <point x="137" y="672"/>
      <point x="148" y="646" type="curve" smooth="yes"/>
      <point x="293" y="295" type="line"/>
      <point x="254" y="74" type="line" smooth="yes"/>
      <point x="249" y="45"/>
      <point x="211" y="38"/>
      <point x="163" y="38" type="curve" smooth="yes"/>
      <point x="147" y="38" type="line"/>
      <point x="139" y="0" type="line"/>
      <point x="406" y="0" type="line"/>
    </contour>
    <contour>
      <point x="332" y="741" type="move" name="top"/>
    </contour>
    <contour>
      <point x="332" y="0" type="move" name="bottom"/>
    </contour>
  </outline>
</glyph>
<glyph name="Z" format="1">
  <advance width="595"/>
  <unicode hex="005A"/>
  <outline>
    <contour>
      <point x="530" y="202" type="line"/>
      <point x="489" y="202" type="line"/>
      <point x="457" y="87" type="line" smooth="yes"/>
      <point x="447" y="51"/>
      <point x="411" y="44"/>
      <point x="325" y="44" type="curve" smooth="yes"/>
      <point x="58" y="44" type="line"/>
      <point x="591" y="664" type="line"/>
      <point x="600" y="710" type="line"/>
      <point x="123" y="710" type="line"/>
      <point x="91" y="528" type="line"/>
      <point x="131" y="528" type="line"/>
      <point x="159" y="623" type="line" smooth="yes"/>
      <point x="169" y="659"/>
      <point x="205" y="666"/>
      <point x="291" y="666" type="curve" smooth="yes"/>
      <point x="522" y="666" type="line"/>
      <point x="-9" y="49" type="line"/>
      <point x="-18" y="0" type="line"/>
      <point x="495" y="0" type="line"/>
    </contour>
    <contour>
      <point x="311" y="741" type="move" name="top"/>
    </contour>
    <contour>
      <point x="311" y="0" type="move" name="bottom"/>
    </contour>
  </outline>
</glyph>
<glyph name="asciicircum" format="1">
  <advance width="501"/>
  <unicode hex="005E"/>
  <outline>
    <contour>
      <point x="112" y="364" type="line"/>
      <point x="308" y="672" type="line"/>
      <point x="393" y="364" type="line"/>
      <point x="445" y="364" type="line"/>
      <point x="346" y="710" type="line"/>
      <point x="282" y="710" type="line"/>
      <point x="59" y="364" type="line"/>
    </contour>
  </outline>
</glyph>
<glyph name="b" format="1">
  <advance width="578"/>
  <unicode hex="0062"/>
  <outline>
    <contour>
      <point x="255" y="-11" type="curve" smooth="yes"/>
      <point x="421" y="-11"/>
      <point x="536" y="143"/>
      <point x="536" y="319" type="curve" smooth="yes"/>
      <point x="536" y="440"/>
      <point x="481" y="518"/>
      <point x="376" y="518" type="curve" smooth="yes"/>
      <point x="299" y="518"/>
      <point x="240" y="470"/>
      <point x="185" y="386" type="curve"/>
      <point x="245" y="735" type="line"/>
      <point x="97" y="735" type="line"/>
      <point x="90" y="700" type="line"/>
      <point x="101" y="698" type="line" smooth="yes"/>
      <point x="150" y="689"/>
      <point x="173" y="683"/>
      <point x="168" y="653" type="curve" smooth="yes"/>
      <point x="66" y="62" type="line"/>
      <point x="101" y="26"/>
      <point x="166" y="-11"/>
    </contour>
    <contour>
      <point x="369" y="475" type="curve" smooth="yes"/>
      <point x="439" y="475"/>
      <point x="469" y="413"/>
      <point x="469" y="322" type="curve" smooth="yes"/>
      <point x="469" y="169"/>
      <point x="386" y="32"/>
      <point x="256" y="32" type="curve" smooth="yes"/>
      <point x="206" y="32"/>
      <point x="160" y="51"/>
      <point x="132" y="81" type="curve"/>
      <point x="171" y="307" type="line"/>
      <point x="234" y="411"/>
      <point x="295" y="475"/>
    </contour>
  </outline>
</glyph>
<glyph name="e" format="1">
  <advance width="485"/>
  <unicode hex="0065"/>
  <outline>
    <contour>
      <point x="107" y="205" type="curve" smooth="yes"/>
      <point x="107" y="208" type="line"/>
      <point x="336" y="211"/>
      <point x="453" y="272"/>
      <point x="453" y="393" type="curve" smooth="yes"/>
      <point x="453" y="466"/>
      <point x="399" y="518"/>
      <point x="304" y="518" type="curve" smooth="yes"/>
      <point x="143" y="518"/>
      <point x="42" y="362"/>
      <point x="42" y="210" type="curve" smooth="yes"/>
      <point x="42" y="65"/>
      <point x="130" y="-12"/>
      <point x="245" y="-12" type="curve" smooth="yes"/>
      <point x="333" y="-12"/>
      <point x="401" y="36"/>
      <point x="438" y="109" type="curve"/>
      <point x="403" y="135" type="line"/>
      <point x="369" y="75"/>
      <point x="323" y="31"/>
      <point x="248" y="31" type="curve" smooth="yes"/>
      <point x="161" y="31"/>
      <point x="107" y="91"/>
    </contour>
    <contour>
      <point x="301" y="475" type="curve" smooth="yes"/>
      <point x="360" y="475"/>
      <point x="392" y="443"/>
      <point x="392" y="393" type="curve" smooth="yes"/>
      <point x="392" y="298"/>
      <point x="318" y="251"/>
      <point x="109" y="245" type="curve"/>
      <point x="123" y="378"/>
      <point x="203" y="475"/>
    </contour>
  </outline>
</glyph>
<glyph name="f" format="1">
  <advance width="353"/>
  <unicode hex="0066"/>
  <outline>
    <contour>
      <point x="107" y="-223" type="line"/>
      <point x="210" y="468" type="line"/>
      <point x="366" y="468" type="line"/>
      <point x="373" y="508" type="line"/>
      <point x="216" y="508" type="line"/>
      <point x="227" y="583" type="line" smooth="yes"/>
      <point x="241" y="678"/>
      <point x="279" y="710"/>
      <point x="342" y="710" type="curve" smooth="yes"/>
      <point x="379" y="710"/>
      <point x="411" y="696"/>
      <point x="428" y="689" type="curve"/>
      <point x="436" y="734" type="line"/>
      <point x="423" y="741"/>
      <point x="390" y="752"/>
      <point x="342" y="752" type="curve" smooth="yes"/>
      <point x="255" y="752"/>
      <point x="177" y="707"/>
      <point x="160" y="584" type="curve" smooth="yes"/>
      <point x="150" y="508" type="line"/>
      <point x="53" y="508" type="line"/>
      <point x="47" y="468" type="line"/>
      <point x="145" y="468" type="line"/>
      <point x="57" y="-223" type="line"/>
    </contour>
  </outline>
</glyph>
<glyph name="i" format="1">
  <advance width="288"/>
  <unicode hex="0069"/>
  <outline>
    <contour>
      <point x="204" y="642" type="curve" smooth="yes"/>
      <point x="233" y="642"/>
      <point x="254" y="660"/>
      <point x="254" y="692" type="curve" smooth="yes"/>
      <point x="254" y="723"/>
      <point x="233" y="741"/>
      <point x="204" y="741" type="curve" smooth="yes"/>
      <point x="176" y="741"/>
      <point x="154" y="723"/>
      <point x="154" y="692" type="curve" smooth="yes"/>
      <point x="154" y="660"/>
      <point x="176" y="642"/>
    </contour>
    <contour>
      <point x="161" y="174" type="curve" smooth="yes"/>
      <point x="220" y="508" type="line"/>
      <point x="69" y="508" type="line"/>
      <point x="62" y="473" type="line"/>
      <point x="74" y="471" type="line" smooth="yes"/>
      <point x="123" y="463"/>
      <point x="148" y="456"/>
      <point x="142" y="425" type="curve" smooth="yes"/>
      <point x="101" y="192" type="line" smooth="yes"/>
      <point x="91" y="133"/>
      <point x="83" y="94"/>
      <point x="83" y="65" type="curve" smooth="yes"/>
      <point x="83" y="15"/>
      <point x="117" y="-7"/>
      <point x="165" y="-7" type="curve" smooth="yes"/>
      <point x="198" y="-7"/>
      <point x="229" y="5"/>
      <point x="244" y="17" type="curve"/>
      <point x="252" y="56" type="line"/>
      <point x="242" y="53"/>
      <point x="212" y="37"/>
      <point x="180" y="37" type="curve" smooth="yes"/>
      <point x="158" y="37"/>
      <point x="146" y="47"/>
      <point x="146" y="69" type="curve" smooth="yes"/>
      <point x="146" y="91"/>
      <point x="153" y="132"/>
    </contour>
    <contour>
      <point x="161" y="551" type="move" name="top"/>
    </contour>
    <contour>
      <point x="205" y="-10" type="move" name="right"/>
    </contour>
    <contour>
      <point x="161" y="-10" type="move" name="bottom"/>
    </contour>
  </outline>
</glyph>
<glyph name="y" format="1">
  <advance width="477"/>
  <unicode hex="0079"/>
  <outline>
    <contour>
      <point x="55" y="-223" type="line"/>
      <point x="127" y="-223" type="line"/>
      <point x="478" y="500" type="line"/>
      <point x="478" y="508" type="line"/>
      <point x="417" y="508" type="line"/>
      <point x="239" y="93" type="line"/>
      <point x="153" y="508" type="line"/>
      <point x="31" y="508" type="line"/>
      <point x="24" y="473" type="line"/>
      <point x="35" y="471" type="line" smooth="yes"/>
      <point x="83" y="462"/>
      <point x="101" y="454"/>
      <point x="108" y="426" type="curve" smooth="yes"/>
      <point x="200" y="11" type="line"/>
      <point x="55" y="-208" type="line"/>
    </contour>
  </outline>
</glyph>
<glyph name="yen" format="1">
  <advance width="560"/>
  <unicode hex="00A5"/>
  <outline>
    <contour>
      <point x="86" y="0" type="line"/>
      <point x="353" y="0" type="line"/>
      <point x="361" y="38" type="line"/>
      <point x="343" y="38" type="line" smooth="yes"/>
      <point x="294" y="38"/>
      <point x="260" y="45"/>
      <point x="265" y="74" type="curve" smooth="yes"/>
      <point x="283" y="175" type="line"/>
      <point x="458" y="175" type="line"/>
      <point x="465" y="215" type="line"/>
      <point x="290" y="215" type="line"/>
      <point x="306" y="308" type="line"/>
      <point x="482" y="308" type="line"/>
      <point x="489" y="349" type="line"/>
      <point x="314" y="349" type="line"/>
      <point x="516" y="631" type="line" smooth="yes"/>
      <point x="543" y="668"/>
      <point x="572" y="672"/>
      <point x="604" y="672" type="curve" smooth="yes"/>
      <point x="609" y="672" type="line"/>
      <point x="617" y="710" type="line"/>
      <point x="399" y="710" type="line"/>
      <point x="391" y="672" type="line"/>
      <point x="406" y="672" type="line" smooth="yes"/>
      <point x="442" y="672"/>
      <point x="484" y="665"/>
      <point x="482" y="654" type="curve"/>
      <point x="296" y="386" type="line"/>
      <point x="197" y="662" type="line"/>
      <point x="198" y="669"/>
      <point x="242" y="672"/>
      <point x="276" y="672" type="curve" smooth="yes"/>
      <point x="293" y="672" type="line"/>
      <point x="301" y="710" type="line"/>
      <point x="72" y="710" type="line"/>
      <point x="65" y="672" type="line"/>
      <point x="70" y="672" type="line" smooth="yes"/>
      <point x="102" y="672"/>
      <point x="128" y="672"/>
      <point x="138" y="646" type="curve" smooth="yes"/>
      <point x="248" y="349" type="line"/>
      <point x="73" y="349" type="line"/>
      <point x="67" y="308" type="line"/>
      <point x="242" y="308" type="line"/>
      <point x="226" y="215" type="line"/>
      <point x="50" y="215" type="line"/>
      <point x="43" y="175" type="line"/>
      <point x="219" y="175" type="line"/>
      <point x="201" y="74" type="line" smooth="yes"/>
      <point x="196" y="45"/>
      <point x="158" y="38"/>
      <point x="109" y="38" type="curve" smooth="yes"/>
      <point x="94" y="38" type="line"/>
    </contour>
  </outline>
</glyph>
<glyph name="ordfeminine" format="1">
  <advance width="467"/>
  <unicode hex="00AA"/>
  <outline>
    <contour>
      <point x="190" y="316" type="curve" smooth="yes"/>
      <point x="248" y="316"/>
      <point x="289" y="357"/>
      <point x="329" y="427" type="curve"/>
      <point x="326" y="409"/>
      <point x="323" y="390"/>
      <point x="323" y="375" type="curve" smooth="yes"/>
      <point x="323" y="337"/>
      <point x="350" y="319"/>
      <point x="391" y="319" type="curve" smooth="yes"/>
      <point x="417" y="319"/>
      <point x="440" y="328"/>
      <point x="452" y="338" type="curve"/>
      <point x="458" y="374" type="line"/>
      <point x="451" y="372"/>
      <point x="429" y="359"/>
      <point x="406" y="359" type="curve" smooth="yes"/>
      <point x="388" y="359"/>
      <point x="378" y="367"/>
      <point x="378" y="383" type="curve" smooth="yes"/>
      <point x="378" y="400"/>
      <point x="382" y="421"/>
      <point x="386" y="443" type="curve" smooth="yes"/>
      <point x="434" y="713" type="line"/>
      <point x="400" y="713" type="line"/>
      <point x="378" y="671" type="line"/>
      <point x="356" y="702"/>
      <point x="323" y="720"/>
      <point x="280" y="720" type="curve" smooth="yes"/>
      <point x="158" y="720"/>
      <point x="70" y="592"/>
      <point x="70" y="462" type="curve" smooth="yes"/>
      <point x="70" y="369"/>
      <point x="114" y="316"/>
    </contour>
    <contour>
      <point x="132" y="460" type="curve" smooth="yes"/>
      <point x="132" y="569"/>
      <point x="191" y="680"/>
      <point x="279" y="680" type="curve" smooth="yes"/>
      <point x="315" y="680"/>
      <point x="344" y="659"/>
      <point x="359" y="623" type="curve"/>
      <point x="337" y="495" type="line"/>
      <point x="292" y="409"/>
      <point x="252" y="355"/>
      <point x="198" y="355" type="curve" smooth="yes"/>
      <point x="154" y="355"/>
      <point x="132" y="392"/>
    </contour>
  </outline>
</glyph>
<glyph name="registered" format="1">
  <advance width="840"/>
  <unicode hex="00AE"/>
  <outline>
    <contour>
      <point x="43" y="355" type="curve" smooth="yes"/>
      <point x="43" y="138"/>
      <point x="208" y="-28"/>
      <point x="423" y="-28" type="curve" smooth="yes"/>
      <point x="638" y="-28"/>
      <point x="803" y="138"/>
      <point x="803" y="355" type="curve" smooth="yes"/>
      <point x="803" y="572"/>
      <point x="638" y="738"/>
      <point x="423" y="738" type="curve" smooth="yes"/>
      <point x="208" y="738"/>
      <point x="43" y="572"/>
    </contour>
    <contour>
      <point x="89" y="355" type="curve" smooth="yes"/>
      <point x="89" y="548"/>
      <point x="229" y="699"/>
      <point x="423" y="699" type="curve" smooth="yes"/>
      <point x="616" y="699"/>
      <point x="757" y="548"/>
      <point x="757" y="355" type="curve" smooth="yes"/>
      <point x="757" y="162"/>
      <point x="616" y="11"/>
      <point x="423" y="11" type="curve" smooth="yes"/>
      <point x="229" y="11"/>
      <point x="89" y="162"/>
    </contour>
    <contour>
      <point x="260" y="153" type="line"/>
      <point x="430" y="153" type="line"/>
      <point x="430" y="187" type="line"/>
      <point x="415" y="187" type="line" smooth="yes"/>
      <point x="396" y="187"/>
      <point x="371" y="188"/>
      <point x="371" y="192" type="curve" smooth="yes"/>
      <point x="371" y="317" type="line"/>
      <point x="426" y="317" type="line" smooth="yes"/>
      <point x="431" y="317"/>
      <point x="435" y="317"/>
      <point x="440" y="317" type="curve"/>
      <point x="520" y="152" type="line"/>
      <point x="608" y="152" type="line"/>
      <point x="608" y="186" type="line"/>
      <point x="596" y="186" type="line" smooth="yes"/>
      <point x="580" y="186"/>
      <point x="566" y="189"/>
      <point x="559" y="202" type="curve" smooth="yes"/>
      <point x="493" y="327" type="line"/>
      <point x="548" y="345"/>
      <point x="583" y="385"/>
      <point x="583" y="441" type="curve" smooth="yes"/>
      <point x="583" y="514"/>
      <point x="523" y="557"/>
      <point x="429" y="557" type="curve" smooth="yes"/>
      <point x="260" y="557" type="line"/>
      <point x="260" y="523" type="line"/>
      <point x="266" y="523" type="line" smooth="yes"/>
      <point x="294" y="523"/>
      <point x="315" y="519"/>
      <point x="315" y="503" type="curve" smooth="yes"/>
      <point x="315" y="207" type="line" smooth="yes"/>
      <point x="315" y="191"/>
      <point x="294" y="187"/>
      <point x="266" y="187" type="curve" smooth="yes"/>
      <point x="260" y="187" type="line"/>
    </contour>
    <contour>
      <point x="428" y="520" type="line" smooth="yes"/>
      <point x="492" y="520"/>
      <point x="524" y="497"/>
      <point x="524" y="441" type="curve" smooth="yes"/>
      <point x="524" y="384"/>
      <point x="492" y="354"/>
      <point x="425" y="354" type="curve" smooth="yes"/>
      <point x="371" y="354" type="line"/>
      <point x="371" y="520" type="line"/>
    </contour>
  </outline>
</glyph>
<glyph name="acute" format="1">
  <advance width="500"/>
  <unicode hex="00B4"/>
  <outline>
    <contour>
      <point x="260" y="704" type="curve" smooth="yes"/>
      <point x="194" y="588" type="line"/>
      <point x="191" y="571" type="line"/>
      <point x="212" y="571" type="line"/>
      <point x="315" y="669" type="line" smooth="yes"/>
      <point x="335" y="688"/>
      <point x="351" y="705"/>
      <point x="351" y="725" type="curve" smooth="yes"/>
      <point x="351" y="743"/>
      <point x="337" y="756"/>
      <point x="317" y="756" type="curve" smooth="yes"/>
      <point x="293" y="756"/>
      <point x="281" y="739"/>
    </contour>
    <contour>
      <point x="205" y="527" type="move" name="_top"/>
    </contour>
  </outline>
</glyph>
<glyph name="ordmasculine" format="1">
  <advance width="493"/>
  <unicode hex="00BA"/>
  <outline>
    <contour>
      <point x="253" y="315" type="curve" smooth="yes"/>
      <point x="372" y="315"/>
      <point x="461" y="409"/>
      <point x="461" y="543" type="curve" smooth="yes"/>
      <point x="461" y="651"/>
      <point x="387" y="720"/>
      <point x="288" y="720" type="curve" smooth="yes"/>
      <point x="171" y="720"/>
      <point x="81" y="626"/>
      <point x="81" y="492" type="curve" smooth="yes"/>
      <point x="81" y="384"/>
      <point x="156" y="315"/>
    </contour>
    <contour>
      <point x="288" y="681" type="curve"/>
      <point x="355" y="681"/>
      <point x="398" y="633"/>
      <point x="398" y="548" type="curve" smooth="yes"/>
      <point x="398" y="519"/>
      <point x="394" y="492"/>
      <point x="386" y="465" type="curve" smooth="yes"/>
      <point x="364" y="402"/>
      <point x="319" y="354"/>
      <point x="254" y="354" type="curve" smooth="yes"/>
      <point x="186" y="354"/>
      <point x="143" y="403"/>
      <point x="143" y="487" type="curve" smooth="yes"/>
      <point x="143" y="516"/>
      <point x="148" y="543"/>
      <point x="156" y="570" type="curve" smooth="yes"/>
      <point x="177" y="633"/>
      <point x="223" y="681"/>
    </contour>
  </outline>
</glyph>
<glyph name="AE" format="1">
  <advance width="967"/>
  <unicode hex="00C6"/>
  <outline>
    <contour>
      <point x="-48" y="0" type="line"/>
      <point x="167" y="0" type="line"/>
      <point x="174" y="38" type="line"/>
      <point x="159" y="38" type="line" smooth="yes"/>
      <point x="121" y="38"/>
      <point x="76" y="45"/>
      <point x="78" y="56" type="curve"/>
      <point x="237" y="258" type="line"/>
      <point x="486" y="258" type="line"/>
      <point x="453" y="75" type="line" smooth="yes"/>
      <point x="448" y="44"/>
      <point x="410" y="38"/>
      <point x="362" y="38" type="curve" smooth="yes"/>
      <point x="351" y="38" type="line"/>
      <point x="344" y="0" type="line"/>
      <point x="854" y="0" type="line"/>
      <point x="891" y="201" type="line"/>
      <point x="850" y="201" type="line"/>
      <point x="818" y="86" type="line" smooth="yes"/>
      <point x="808" y="50"/>
      <point x="772" y="43"/>
      <point x="686" y="43" type="curve" smooth="yes"/>
      <point x="513" y="43" type="line"/>
      <point x="565" y="343" type="line"/>
      <point x="795" y="338" type="line"/>
      <point x="805" y="389" type="line"/>
      <point x="572" y="384" type="line"/>
      <point x="622" y="667" type="line"/>
      <point x="762" y="667" type="line" smooth="yes"/>
      <point x="848" y="667"/>
      <point x="882" y="660"/>
      <point x="880" y="624" type="curve" smooth="yes"/>
      <point x="875" y="534" type="line"/>
      <point x="915" y="534" type="line"/>
      <point x="944" y="710" type="line"/>
      <point x="395" y="710" type="line"/>
      <point x="388" y="672" type="line"/>
      <point x="400" y="672" type="line" smooth="yes"/>
      <point x="448" y="672"/>
      <point x="487" y="666"/>
      <point x="489" y="646" type="curve"/>
      <point x="42" y="81" type="line" smooth="yes"/>
      <point x="14" y="46"/>
      <point x="0" y="38"/>
      <point x="-35" y="38" type="curve" smooth="yes"/>
      <point x="-40" y="38" type="line"/>
    </contour>
    <contour>
      <point x="269" y="298" type="line"/>
      <point x="558" y="664" type="line"/>
      <point x="493" y="298" type="line"/>
    </contour>
  </outline>
</glyph>
<glyph name="Eth" format="1">
  <advance width="739"/>
  <unicode hex="00D0"/>
  <outline>
    <contour>
      <point x="52" y="375" type="line"/>
      <point x="44" y="335" type="line"/>
      <point x="144" y="335" type="line"/>
      <point x="98" y="74" type="line" smooth="yes"/>
      <point x="93" y="45"/>
      <point x="56" y="38"/>
      <point x="7" y="38" type="curve" smooth="yes"/>
      <point x="-5" y="38" type="line"/>
      <point x="-13" y="0" type="line"/>
      <point x="274" y="0" type="line" smooth="yes"/>
      <point x="565" y="0"/>
      <point x="701" y="183"/>
      <point x="701" y="400" type="curve" smooth="yes"/>
      <point x="701" y="588"/>
      <point x="571" y="710"/>
      <point x="334" y="710" type="curve" smooth="yes"/>
      <point x="113" y="710" type="line"/>
      <point x="106" y="672" type="line"/>
      <point x="118" y="672" type="line" smooth="yes"/>
      <point x="167" y="672"/>
      <point x="202" y="663"/>
      <point x="197" y="636" type="curve" smooth="yes"/>
      <point x="151" y="375" type="line"/>
    </contour>
    <contour>
      <point x="332" y="666" type="line" smooth="yes"/>
      <point x="538" y="666"/>
      <point x="633" y="566"/>
      <point x="633" y="400" type="curve" smooth="yes"/>
      <point x="633" y="200"/>
      <point x="528" y="44"/>
      <point x="271" y="44" type="curve" smooth="yes"/>
      <point x="156" y="44" type="line"/>
      <point x="208" y="335" type="line"/>
      <point x="434" y="335" type="line"/>
      <point x="442" y="375" type="line"/>
      <point x="215" y="375" type="line"/>
      <point x="267" y="666" type="line"/>
    </contour>
  </outline>
</glyph>
<glyph name="multiply" format="1">
  <advance width="560"/>
  <unicode hex="00D7"/>
  <outline>
    <contour>
      <point x="166" y="528" type="line"/>
      <point x="127" y="497" type="line"/>
      <point x="254" y="343" type="line"/>
      <point x="75" y="189" type="line"/>
      <point x="103" y="154" type="line"/>
      <point x="283" y="308" type="line"/>
      <point x="409" y="154" type="line"/>
      <point x="447" y="184" type="line"/>
      <point x="320" y="340" type="line"/>
      <point x="498" y="492" type="line"/>
      <point x="470" y="528" type="line"/>
      <point x="291" y="375" type="line"/>
    </contour>
  </outline>
</glyph>
<glyph name="Oslash" format="1">
  <advance width="759"/>
  <unicode hex="00D8"/>
  <outline>
    <contour>
      <point x="721" y="391" type="curve" smooth="yes"/>
      <point x="721" y="467"/>
      <point x="700" y="538"/>
      <point x="660" y="595" type="curve"/>
      <point x="797" y="722" type="line"/>
      <point x="736" y="722" type="line"/>
      <point x="634" y="627" type="line"/>
      <point x="581" y="684"/>
      <point x="506" y="720"/>
      <point x="413" y="720" type="curve" smooth="yes"/>
      <point x="191" y="720"/>
      <point x="45" y="530"/>
      <point x="45" y="319" type="curve" smooth="yes"/>
      <point x="45" y="249"/>
      <point x="63" y="182"/>
      <point x="97" y="128" type="curve"/>
      <point x="-53" y="-12" type="line"/>
      <point x="9" y="-12" type="line"/>
      <point x="122" y="94" type="line"/>
      <point x="175" y="30"/>
      <point x="254" y="-10"/>
      <point x="353" y="-10" type="curve" smooth="yes"/>
      <point x="575" y="-10"/>
      <point x="721" y="180"/>
    </contour>
    <contour>
      <point x="113" y="319" type="curve" smooth="yes"/>
      <point x="113" y="501"/>
      <point x="221" y="676"/>
      <point x="412" y="676" type="curve" smooth="yes"/>
      <point x="498" y="676"/>
      <point x="559" y="646"/>
      <point x="598" y="594" type="curve"/>
      <point x="139" y="167" type="line"/>
      <point x="121" y="209"/>
      <point x="113" y="261"/>
    </contour>
    <contour>
      <point x="653" y="391" type="curve" smooth="yes"/>
      <point x="653" y="209"/>
      <point x="545" y="34"/>
      <point x="353" y="34" type="curve" smooth="yes"/>
      <point x="261" y="34"/>
      <point x="198" y="69"/>
      <point x="159" y="128" type="curve"/>
      <point x="620" y="558" type="line"/>
      <point x="643" y="512"/>
      <point x="653" y="456"/>
    </contour>
    <contour>
      <point x="376" y="731" type="move" name="top"/>
    </contour>
  </outline>
</glyph>
<glyph name="oslash" format="1">
  <advance width="562"/>
  <unicode hex="00F8"/>
  <outline>
    <contour>
      <point x="306" y="518" type="curve" smooth="yes"/>
      <point x="155" y="518"/>
      <point x="42" y="385"/>
      <point x="42" y="219" type="curve" smooth="yes"/>
      <point x="42" y="170"/>
      <point x="54" y="126"/>
      <point x="76" y="89" type="curve"/>
      <point x="-37" y="-15" type="line"/>
      <point x="24" y="-15" type="line"/>
      <point x="100" y="56" type="line"/>
      <point x="139" y="13"/>
      <point x="193" y="-12"/>
      <point x="256" y="-12" type="curve" smooth="yes"/>
      <point x="408" y="-12"/>
      <point x="520" y="120"/>
      <point x="520" y="286" type="curve" smooth="yes"/>
      <point x="520" y="334"/>
      <point x="508" y="378"/>
      <point x="488" y="414" type="curve"/>
      <point x="603" y="520" type="line"/>
      <point x="541" y="520" type="line"/>
      <point x="463" y="448" type="line"/>
      <point x="425" y="492"/>
      <point x="370" y="518"/>
    </contour>
    <contour>
      <point x="107" y="212" type="curve" smooth="yes"/>
      <point x="107" y="336"/>
      <point x="175" y="475"/>
      <point x="306" y="475" type="curve" smooth="yes"/>
      <point x="363" y="475"/>
      <point x="403" y="453"/>
      <point x="427" y="414" type="curve"/>
      <point x="118" y="129" type="line"/>
      <point x="111" y="153"/>
      <point x="107" y="181"/>
    </contour>
    <contour>
      <point x="256" y="31" type="curve" smooth="yes"/>
      <point x="200" y="31"/>
      <point x="161" y="52"/>
      <point x="136" y="89" type="curve"/>
      <point x="444" y="373" type="line"/>
      <point x="451" y="350"/>
      <point x="454" y="324"/>
      <point x="454" y="294" type="curve" smooth="yes"/>
      <point x="454" y="170"/>
      <point x="387" y="31"/>
    </contour>
    <contour>
      <point x="290" y="551" type="move" name="top"/>
    </contour>
  </outline>
</glyph>
<glyph name="hbar" format="1">
  <advance width="590"/>
  <unicode hex="0127"/>
  <outline>
    <contour>
      <point x="403" y="193" type="line" smooth="yes"/>
      <point x="390" y="131"/>
      <point x="384" y="94"/>
      <point x="384" y="65" type="curve" smooth="yes"/>
      <point x="384" y="15"/>
      <point x="418" y="-7"/>
      <point x="466" y="-7" type="curve" smooth="yes"/>
      <point x="498" y="-7"/>
      <point x="530" y="5"/>
      <point x="545" y="17" type="curve"/>
      <point x="553" y="56" type="line"/>
      <point x="543" y="53"/>
      <point x="513" y="37"/>
      <point x="481" y="37" type="curve" smooth="yes"/>
      <point x="459" y="37"/>
      <point x="447" y="47"/>
      <point x="447" y="69" type="curve" smooth="yes"/>
      <point x="447" y="90"/>
      <point x="455" y="130"/>
      <point x="464" y="175" type="curve" smooth="yes"/>
      <point x="491" y="318" type="line" smooth="yes"/>
      <point x="497" y="353"/>
      <point x="503" y="384"/>
      <point x="503" y="411" type="curve" smooth="yes"/>
      <point x="503" y="476"/>
      <point x="460" y="518"/>
      <point x="390" y="518" type="curve" smooth="yes"/>
      <point x="313" y="518"/>
      <point x="252" y="468"/>
      <point x="193" y="386" type="curve"/>
      <point x="229" y="592" type="line"/>
      <point x="437" y="592" type="line"/>
      <point x="445" y="632" type="line"/>
      <point x="236" y="632" type="line"/>
      <point x="254" y="735" type="line"/>
      <point x="191" y="735" type="line"/>
      <point x="173" y="632" type="line"/>
      <point x="72" y="632" type="line"/>
      <point x="65" y="592" type="line"/>
      <point x="166" y="592" type="line"/>
      <point x="62" y="0" type="line"/>
      <point x="125" y="0" type="line"/>
      <point x="181" y="317" type="line"/>
      <point x="245" y="414"/>
      <point x="307" y="471"/>
      <point x="372" y="471" type="curve" smooth="yes"/>
      <point x="419" y="471"/>
      <point x="439" y="445"/>
      <point x="439" y="406" type="curve" smooth="yes"/>
      <point x="439" y="379"/>
      <point x="435" y="353"/>
      <point x="428" y="318" type="curve" smooth="yes"/>
    </contour>
  </outline>
</glyph>
<glyph name="Eng" format="1">
  <advance width="773"/>
  <unicode hex="014A"/>
  <outline>
    <contour>
      <point x="380" y="-212" type="curve" smooth="yes"/>
      <point x="475" y="-212"/>
      <point x="553" y="-152"/>
      <point x="575" y="-26" type="curve" smooth="yes"/>
      <point x="692" y="636" type="line" smooth="yes"/>
      <point x="697" y="663"/>
      <point x="735" y="672"/>
      <point x="783" y="672" type="curve" smooth="yes"/>
      <point x="795" y="672" type="line"/>
      <point x="802" y="710" type="line"/>
      <point x="551" y="710" type="line"/>
      <point x="543" y="672" type="line"/>
      <point x="557" y="672" type="line" smooth="yes"/>
      <point x="600" y="672"/>
      <point x="649" y="666"/>
      <point x="648" y="659" type="curve" smooth="yes"/>
      <point x="551" y="111" type="line"/>
      <point x="298" y="710" type="line"/>
      <point x="113" y="710" type="line"/>
      <point x="105" y="672" type="line"/>
      <point x="116" y="672" type="line" smooth="yes"/>
      <point x="165" y="672"/>
      <point x="200" y="665"/>
      <point x="195" y="636" type="curve" smooth="yes"/>
      <point x="97" y="76" type="line" smooth="yes"/>
      <point x="92" y="47"/>
      <point x="53" y="38"/>
      <point x="6" y="38" type="curve" smooth="yes"/>
      <point x="-5" y="38" type="line"/>
      <point x="-13" y="0" type="line"/>
      <point x="239" y="0" type="line"/>
      <point x="246" y="38" type="line"/>
      <point x="232" y="38" type="line" smooth="yes"/>
      <point x="189" y="38"/>
      <point x="141" y="44"/>
      <point x="142" y="51" type="curve" smooth="yes"/>
      <point x="250" y="667" type="line"/>
      <point x="531" y="6" type="line"/>
      <point x="526" y="-23" type="line" smooth="yes"/>
      <point x="508" y="-123"/>
      <point x="455" y="-166"/>
      <point x="384" y="-166" type="curve" smooth="yes"/>
      <point x="336" y="-166"/>
      <point x="298" y="-153"/>
      <point x="274" y="-142" type="curve"/>
      <point x="266" y="-189" type="line"/>
      <point x="289" y="-201"/>
      <point x="329" y="-212"/>
    </contour>
  </outline>
</glyph>
<glyph name="oe" format="1">
  <advance width="886"/>
  <unicode hex="0153"/>
  <outline>
    <contour>
      <point x="509" y="207" type="curve" smooth="yes"/>
      <point x="509" y="208" type="line"/>
      <point x="740" y="211"/>
      <point x="856" y="271"/>
      <point x="856" y="392" type="curve" smooth="yes"/>
      <point x="856" y="466"/>
      <point x="800" y="518"/>
      <point x="706" y="518" type="curve" smooth="yes"/>
      <point x="607" y="518"/>
      <point x="532" y="455"/>
      <point x="491" y="371" type="curve"/>
      <point x="467" y="458"/>
      <point x="400" y="518"/>
      <point x="304" y="518" type="curve" smooth="yes"/>
      <point x="154" y="518"/>
      <point x="42" y="385"/>
      <point x="42" y="219" type="curve" smooth="yes"/>
      <point x="42" y="85"/>
      <point x="128" y="-12"/>
      <point x="251" y="-12" type="curve" smooth="yes"/>
      <point x="345" y="-12"/>
      <point x="422" y="45"/>
      <point x="465" y="130" type="curve"/>
      <point x="491" y="37"/>
      <point x="562" y="-12"/>
      <point x="652" y="-12" type="curve" smooth="yes"/>
      <point x="739" y="-12"/>
      <point x="801" y="33"/>
      <point x="840" y="88" type="curve"/>
      <point x="815" y="122" type="line"/>
      <point x="775" y="68"/>
      <point x="730" y="31"/>
      <point x="655" y="31" type="curve" smooth="yes"/>
      <point x="569" y="31"/>
      <point x="509" y="88"/>
    </contour>
    <contour>
      <point x="703" y="475" type="curve" smooth="yes"/>
      <point x="763" y="475"/>
      <point x="794" y="443"/>
      <point x="794" y="393" type="curve" smooth="yes"/>
      <point x="794" y="298"/>
      <point x="722" y="251"/>
      <point x="511" y="245" type="curve"/>
      <point x="524" y="378"/>
      <point x="602" y="475"/>
    </contour>
    <contour>
      <point x="252" y="31" type="curve" smooth="yes"/>
      <point x="160" y="31"/>
      <point x="109" y="104"/>
      <point x="109" y="212" type="curve" smooth="yes"/>
      <point x="109" y="336"/>
      <point x="175" y="475"/>
      <point x="303" y="475" type="curve" smooth="yes"/>
      <point x="395" y="475"/>
      <point x="446" y="402"/>
      <point x="446" y="294" type="curve" smooth="yes"/>
      <point x="446" y="170"/>
      <point x="380" y="31"/>
    </contour>
  </outline>
</glyph>
<glyph name="Tbar" format="1">
  <advance width="649"/>
  <unicode hex="0166"/>
  <outline>
    <contour>
      <point x="140" y="375" type="line"/>
      <point x="132" y="334" type="line"/>
      <point x="521" y="334" type="line"/>
      <point x="529" y="375" type="line"/>
    </contour>
    <component base="T"/>
  </outline>
</glyph>
<glyph name="Ohorn" format="1">
  <advance width="759"/>
  <unicode hex="01A0"/>
  <outline>
    <contour>
      <point x="721" y="391" type="curve" smooth="yes"/>
      <point x="721" y="521"/>
      <point x="657" y="640"/>
      <point x="527" y="691" type="curve"/>
      <point x="670" y="689"/>
      <point x="764" y="731"/>
      <point x="785" y="878" type="curve"/>
      <point x="724" y="878" type="line"/>
      <point x="702" y="741"/>
      <point x="620" y="720"/>
      <point x="413" y="720" type="curve"/>
      <point x="191" y="720"/>
      <point x="45" y="530"/>
      <point x="45" y="319" type="curve" smooth="yes"/>
      <point x="45" y="142"/>
      <point x="161" y="-10"/>
      <point x="353" y="-10" type="curve" smooth="yes"/>
      <point x="575" y="-10"/>
      <point x="721" y="180"/>
    </contour>
    <contour>
      <point x="113" y="319" type="curve" smooth="yes"/>
      <point x="113" y="501"/>
      <point x="221" y="676"/>
      <point x="412" y="676" type="curve" smooth="yes"/>
      <point x="575" y="676"/>
      <point x="653" y="544"/>
      <point x="653" y="391" type="curve" smooth="yes"/>
      <point x="653" y="209"/>
      <point x="545" y="34"/>
      <point x="353" y="34" type="curve" smooth="yes"/>
      <point x="191" y="34"/>
      <point x="113" y="166"/>
    </contour>
    <contour>
      <point x="377" y="742" type="move" name="top"/>
    </contour>
  </outline>
</glyph>
<glyph name="verticallinemod" format="1">
  <advance width="500"/>
  <unicode hex="02C8"/>
  <outline>
    <contour>
      <point x="217" y="547" type="line"/>
      <point x="289" y="547" type="line"/>
      <point x="289" y="750" type="line"/>
      <point x="217" y="750" type="line"/>
    </contour>
  </outline>
</glyph>
<glyph name="dotaccent" format="1">
  <advance width="500"/>
  <unicode hex="02D9"/>
  <outline>
    <contour>
      <point x="268" y="639" type="curve" smooth="yes"/>
      <point x="297" y="639"/>
      <point x="318" y="657"/>
      <point x="318" y="689" type="curve" smooth="yes"/>
      <point x="318" y="720"/>
      <point x="297" y="738"/>
      <point x="268" y="738" type="curve" smooth="yes"/>
      <point x="240" y="738"/>
      <point x="218" y="720"/>
      <point x="218" y="689" type="curve" smooth="yes"/>
      <point x="218" y="657"/>
      <point x="240" y="639"/>
    </contour>
    <contour>
      <point x="243" y="526" type="move" name="_top"/>
    </contour>
  </outline>
</glyph>
<glyph name="ogonek" format="1">
  <advance width="600"/>
  <unicode hex="02DB"/>
  <outline>
    <contour>
      <point x="445" y="28" type="curve"/>
      <point x="319" y="-28"/>
      <point x="247" y="-80"/>
      <point x="247" y="-148" type="curve" smooth="yes"/>
      <point x="247" y="-202"/>
      <point x="287" y="-234"/>
      <point x="347" y="-234" type="curve" smooth="yes"/>
      <point x="389" y="-234"/>
      <point x="421" y="-214"/>
      <point x="447" y="-186" type="curve"/>
      <point x="427" y="-158" type="line"/>
      <point x="407" y="-177"/>
      <point x="385" y="-194"/>
      <point x="357" y="-194" type="curve" smooth="yes"/>
      <point x="330" y="-194"/>
      <point x="313" y="-178"/>
      <point x="313" y="-146" type="curve" smooth="yes"/>
      <point x="313" y="-97"/>
      <point x="347" y="-50"/>
      <point x="464" y="6" type="curve"/>
      <point x="460" y="10"/>
      <point x="449" y="20"/>
    </contour>
    <contour>
      <point x="348" y="20" type="move" name="_right"/>
    </contour>
  </outline>
</glyph>
<glyph name="daggerdbl" format="1">
  <advance width="419"/>
  <unicode hex="2021"/>
  <outline>
    <contour>
      <point x="182" y="341" type="line"/>
      <point x="189" y="308"/>
      <point x="188" y="270"/>
      <point x="178" y="207" type="curve"/>
      <point x="46" y="238" type="line"/>
      <point x="16" y="238" type="line"/>
      <point x="2" y="160" type="line"/>
      <point x="34" y="160" type="line"/>
      <point x="173" y="180" type="line"/>
      <point x="160" y="122"/>
      <point x="135" y="67"/>
      <point x="130" y="37" type="curve" smooth="yes"/>
      <point x="124" y="0" type="line"/>
      <point x="194" y="0" type="line"/>
      <point x="200" y="35" type="line" smooth="yes"/>
      <point x="206" y="66"/>
      <point x="201" y="120"/>
      <point x="209" y="179" type="curve"/>
      <point x="341" y="160" type="line"/>
      <point x="371" y="160" type="line"/>
      <point x="386" y="238" type="line"/>
      <point x="353" y="238" type="line"/>
      <point x="213" y="207" type="line"/>
      <point x="225" y="269"/>
      <point x="238" y="305"/>
      <point x="256" y="335" type="curve"/>
      <point x="263" y="370" type="line"/>
      <point x="256" y="403"/>
      <point x="256" y="441"/>
      <point x="266" y="503" type="curve"/>
      <point x="398" y="472" type="line"/>
      <point x="428" y="472" type="line"/>
      <point x="442" y="550" type="line"/>
      <point x="409" y="550" type="line"/>
      <point x="271" y="529" type="line"/>
      <point x="284" y="588"/>
      <point x="309" y="643"/>
      <point x="314" y="672" type="curve" smooth="yes"/>
      <point x="320" y="710" type="line"/>
      <point x="251" y="710" type="line"/>
      <point x="244" y="675" type="line" smooth="yes"/>
      <point x="238" y="644"/>
      <point x="243" y="589"/>
      <point x="235" y="530" type="curve"/>
      <point x="103" y="550" type="line"/>
      <point x="73" y="550" type="line"/>
      <point x="59" y="472" type="line"/>
      <point x="91" y="472" type="line"/>
      <point x="231" y="503" type="line"/>
      <point x="220" y="441"/>
      <point x="207" y="405"/>
      <point x="188" y="376" type="curve"/>
    </contour>
  </outline>
</glyph>
<glyph name="minute" format="1">
  <advance width="226"/>
  <unicode hex="2032"/>
  <outline>
    <contour>
      <point x="185" y="710" type="line"/>
      <point x="172" y="624"/>
      <point x="150" y="586"/>
      <point x="129" y="465" type="curve"/>
      <point x="88" y="465" type="line"/>
      <point x="111" y="592"/>
      <point x="103" y="631"/>
      <point x="117" y="710" type="curve"/>
    </contour>
  </outline>
</glyph>
<glyph name="guilsinglleft" format="1">
  <advance width="291"/>
  <unicode hex="2039"/>
  <outline>
    <contour>
      <point x="276" y="455" type="line"/>
      <point x="237" y="455" type="line"/>
      <point x="60" y="292" type="line"/>
      <point x="53" y="256" type="line"/>
      <point x="164" y="75" type="line"/>
      <point x="201" y="75" type="line"/>
      <point x="121" y="268" type="line"/>
    </contour>
  </outline>
</glyph>
<glyph name="Euro" format="1">
  <advance width="560"/>
  <unicode hex="20AC"/>
  <outline>
    <contour>
      <point x="13" y="291" type="line"/>
      <point x="5" y="249" type="line"/>
      <point x="86" y="249" type="line"/>
      <point x="93" y="77"/>
      <point x="182" y="-10"/>
      <point x="305" y="-10" type="curve"/>
      <point x="408" y="-10"/>
      <point x="480" y="52"/>
      <point x="516" y="143" type="curve"/>
      <point x="476" y="169" type="line"/>
      <point x="453" y="110"/>
      <point x="397" y="35"/>
      <point x="308" y="35" type="curve"/>
      <point x="217" y="35"/>
      <point x="158" y="102"/>
      <point x="153" y="249" type="curve"/>
      <point x="332" y="249" type="line"/>
      <point x="340" y="291" type="line"/>
      <point x="153" y="291" type="line"/>
      <point x="155" y="324"/>
      <point x="159" y="362"/>
      <point x="166" y="396" type="curve" smooth="yes"/>
      <point x="167" y="401" type="line"/>
      <point x="403" y="401" type="line"/>
      <point x="410" y="444" type="line"/>
      <point x="177" y="444" type="line"/>
      <point x="221" y="603"/>
      <point x="312" y="675"/>
      <point x="412" y="675" type="curve" smooth="yes"/>
      <point x="455" y="675"/>
      <point x="486" y="663"/>
      <point x="509" y="644" type="curve"/>
      <point x="495" y="563" type="line"/>
      <point x="564" y="563" type="line"/>
      <point x="580" y="654" type="line"/>
      <point x="563" y="679"/>
      <point x="508" y="719"/>
      <point x="413" y="719" type="curve" smooth="yes"/>
      <point x="266" y="719"/>
      <point x="155" y="606"/>
      <point x="109" y="444" type="curve"/>
      <point x="39" y="444" type="line"/>
      <point x="32" y="401" type="line"/>
      <point x="99" y="401" type="line"/>
      <point x="92" y="366"/>
      <point x="88" y="329"/>
      <point x="86" y="291" type="curve"/>
    </contour>
  </outline>
</glyph>
<glyph name="kip" format="1">
  <advance width="560"/>
  <unicode hex="20AD"/>
  <outline>
    <contour>
      <point x="46" y="391" type="line"/>
      <point x="39" y="351" type="line"/>
      <point x="124" y="351" type="line"/>
      <point x="75" y="74" type="line" smooth="yes"/>
      <point x="70" y="45"/>
      <point x="39" y="38"/>
      <point x="-1" y="38" type="curve" smooth="yes"/>
      <point x="-12" y="38" type="line"/>
      <point x="-19" y="0" type="line"/>
      <point x="211" y="0" type="line"/>
      <point x="218" y="38" type="line"/>
      <point x="209" y="38" type="line" smooth="yes"/>
      <point x="176" y="38"/>
      <point x="133" y="41"/>
      <point x="134" y="48" type="curve" smooth="yes"/>
      <point x="188" y="351" type="line"/>
      <point x="245" y="351" type="line"/>
      <point x="393" y="48" type="line"/>
      <point x="392" y="41"/>
      <point x="351" y="38"/>
      <point x="318" y="38" type="curve" smooth="yes"/>
      <point x="308" y="38" type="line"/>
      <point x="300" y="0" type="line"/>
      <point x="524" y="0" type="line"/>
      <point x="531" y="38" type="line"/>
      <point x="517" y="38" type="line" smooth="yes"/>
      <point x="484" y="38"/>
      <point x="467" y="42"/>
      <point x="453" y="71" type="curve" smooth="yes"/>
      <point x="313" y="351" type="line"/>
      <point x="512" y="351" type="line"/>
      <point x="519" y="391" type="line"/>
      <point x="311" y="391" type="line"/>
      <point x="525" y="643" type="line" smooth="yes"/>
      <point x="544" y="666"/>
      <point x="564" y="672"/>
      <point x="590" y="672" type="curve" smooth="yes"/>
      <point x="603" y="672" type="line"/>
      <point x="611" y="710" type="line"/>
      <point x="414" y="710" type="line"/>
      <point x="407" y="672" type="line"/>
      <point x="415" y="672" type="line" smooth="yes"/>
      <point x="447" y="672"/>
      <point x="486" y="669"/>
      <point x="487" y="662" type="curve"/>
      <point x="258" y="391" type="line"/>
      <point x="195" y="391" type="line"/>
      <point x="243" y="662" type="line" smooth="yes"/>
      <point x="244" y="669"/>
      <point x="286" y="672"/>
      <point x="320" y="672" type="curve" smooth="yes"/>
      <point x="329" y="672" type="line"/>
      <point x="336" y="710" type="line"/>
      <point x="107" y="710" type="line"/>
      <point x="99" y="672" type="line"/>
      <point x="110" y="672" type="line" smooth="yes"/>
      <point x="151" y="672"/>
      <point x="180" y="665"/>
      <point x="175" y="636" type="curve" smooth="yes"/>
      <point x="131" y="391" type="line"/>
    </contour>
  </outline>
</glyph>
<glyph name="peso" format="1">
  <advance width="560"/>
  <unicode hex="20B1"/>
  <outline>
    <contour>
      <point x="53" y="504" type="line"/>
      <point x="46" y="464" type="line"/>
      <point x="134" y="464" type="line"/>
      <point x="65" y="74" type="line" smooth="yes"/>
      <point x="60" y="45"/>
      <point x="27" y="38"/>
      <point x="-17" y="38" type="curve" smooth="yes"/>
      <point x="-28" y="38" type="line"/>
      <point x="-35" y="0" type="line"/>
      <point x="213" y="0" type="line"/>
      <point x="221" y="38" type="line"/>
      <point x="196" y="38" type="line" smooth="yes"/>
      <point x="164" y="38"/>
      <point x="124" y="41"/>
      <point x="125" y="48" type="curve" smooth="yes"/>
      <point x="162" y="255" type="line"/>
      <point x="229" y="255" type="line" smooth="yes"/>
      <point x="399" y="255"/>
      <point x="488" y="343"/>
      <point x="506" y="464" type="curve"/>
      <point x="580" y="464" type="line"/>
      <point x="587" y="504" type="line"/>
      <point x="510" y="504" type="line"/>
      <point x="510" y="507"/>
      <point x="510" y="510"/>
      <point x="510" y="513" type="curve" smooth="yes"/>
      <point x="510" y="626"/>
      <point x="429" y="710"/>
      <point x="278" y="710" type="curve" smooth="yes"/>
      <point x="91" y="710" type="line"/>
      <point x="84" y="672" type="line"/>
      <point x="95" y="672" type="line" smooth="yes"/>
      <point x="138" y="672"/>
      <point x="169" y="665"/>
      <point x="164" y="636" type="curve" smooth="yes"/>
      <point x="141" y="504" type="line"/>
    </contour>
    <contour>
      <point x="275" y="667" type="line" smooth="yes"/>
      <point x="393" y="667"/>
      <point x="447" y="604"/>
      <point x="447" y="516" type="curve" smooth="yes"/>
      <point x="447" y="512"/>
      <point x="447" y="508"/>
      <point x="447" y="504" type="curve"/>
      <point x="206" y="504" type="line"/>
      <point x="235" y="667" type="line"/>
    </contour>
    <contour>
      <point x="169" y="297" type="line"/>
      <point x="199" y="464" type="line"/>
      <point x="443" y="464" type="line"/>
      <point x="426" y="357"/>
      <point x="363" y="297"/>
      <point x="232" y="297" type="curve" smooth="yes"/>
    </contour>
  </outline>
</glyph>
<glyph name="ruble" format="1">
  <advance width="561"/>
  <unicode hex="20BD"/>
  <outline>
    <contour>
      <point x="48" y="380" type="line"/>
      <point x="41" y="339" type="line"/>
      <point x="138" y="339" type="line"/>
      <point x="117" y="223" type="line"/>
      <point x="20" y="223" type="line"/>
      <point x="13" y="183" type="line"/>
      <point x="110" y="183" type="line"/>
      <point x="91" y="74" type="line" smooth="yes"/>
      <point x="86" y="45"/>
      <point x="49" y="38"/>
      <point x="0" y="38" type="curve" smooth="yes"/>
      <point x="-11" y="38" type="line"/>
      <point x="-18" y="0" type="line"/>
      <point x="247" y="0" type="line"/>
      <point x="254" y="38" type="line"/>
      <point x="227" y="38" type="line" smooth="yes"/>
      <point x="193" y="38"/>
      <point x="150" y="41"/>
      <point x="151" y="48" type="curve" smooth="yes"/>
      <point x="175" y="183" type="line"/>
      <point x="364" y="183" type="line"/>
      <point x="371" y="223" type="line"/>
      <point x="182" y="223" type="line"/>
      <point x="203" y="339" type="line"/>
      <point x="322" y="339" type="line" smooth="yes"/>
      <point x="495" y="339"/>
      <point x="580" y="425"/>
      <point x="580" y="544" type="curve" smooth="yes"/>
      <point x="580" y="643"/>
      <point x="506" y="710"/>
      <point x="348" y="710" type="curve" smooth="yes"/>
      <point x="108" y="710" type="line"/>
      <point x="100" y="672" type="line"/>
      <point x="111" y="672" type="line" smooth="yes"/>
      <point x="160" y="672"/>
      <point x="195" y="665"/>
      <point x="190" y="636" type="curve" smooth="yes"/>
      <point x="145" y="380" type="line"/>
    </contour>
    <contour>
      <point x="261" y="667" type="line"/>
      <point x="346" y="667" type="line" smooth="yes"/>
      <point x="466" y="667"/>
      <point x="512" y="621"/>
      <point x="512" y="545" type="curve" smooth="yes"/>
      <point x="512" y="518"/>
      <point x="508" y="493"/>
      <point x="499" y="472" type="curve" smooth="yes"/>
      <point x="476" y="414"/>
      <point x="420" y="380"/>
      <point x="324" y="380" type="curve" smooth="yes"/>
      <point x="210" y="380" type="line"/>
    </contour>
  </outline>
</glyph>
<glyph name="numero" format="1">
  <advance width="1215"/>
  <unicode hex="2116"/>
  <outline>
    <contour>
      <point x="809" y="232" type="line"/>
      <point x="802" y="190" type="line"/>
      <point x="1135" y="190" type="line"/>
      <point x="1143" y="232" type="line"/>
    </contour>
    <component base="N" xOffset="3"/>
    <component base="ordmasculine" xOffset="736"/>
  </outline>
</glyph>
<glyph name="product" format="1">
  <advance width="722"/>
  <unicode hex="220F"/>
  <outline>
    <contour>
      <point x="122" y="710" type="line"/>
      <point x="115" y="672" type="line"/>
      <point x="126" y="672" type="line" smooth="yes"/>
      <point x="175" y="672"/>
      <point x="210" y="665"/>
      <point x="205" y="636" type="curve" smooth="yes"/>
      <point x="66" y="-149" type="line" smooth="yes"/>
      <point x="61" y="-178"/>
      <point x="24" y="-185"/>
      <point x="-25" y="-185" type="curve" smooth="yes"/>
      <point x="-36" y="-185" type="line"/>
      <point x="-42" y="-223" type="line"/>
      <point x="212" y="-223" type="line"/>
      <point x="219" y="-185" type="line"/>
      <point x="210" y="-185" type="line" smooth="yes"/>
      <point x="173" y="-185"/>
      <point x="126" y="-182"/>
      <point x="127" y="-175" type="curve" smooth="yes"/>
      <point x="274" y="662" type="line" smooth="yes"/>
      <point x="275" y="669"/>
      <point x="325" y="672"/>
      <point x="363" y="672" type="curve" smooth="yes"/>
      <point x="494" y="672" type="line" smooth="yes"/>
      <point x="532" y="672"/>
      <point x="580" y="669"/>
      <point x="579" y="662" type="curve" smooth="yes"/>
      <point x="432" y="-175" type="line" smooth="yes"/>
      <point x="431" y="-182"/>
      <point x="383" y="-185"/>
      <point x="345" y="-185" type="curve" smooth="yes"/>
      <point x="336" y="-185" type="line"/>
      <point x="330" y="-223" type="line"/>
      <point x="584" y="-223" type="line"/>
      <point x="591" y="-185" type="line"/>
      <point x="580" y="-185" type="line" smooth="yes"/>
      <point x="531" y="-185"/>
      <point x="496" y="-178"/>
      <point x="501" y="-149" type="curve" smooth="yes"/>
      <point x="640" y="636" type="line" smooth="yes"/>
      <point x="645" y="665"/>
      <point x="682" y="672"/>
      <point x="731" y="672" type="curve" smooth="yes"/>
      <point x="742" y="672" type="line"/>
      <point x="748" y="710" type="line"/>
    </contour>
  </outline>
</glyph>
<glyph name="infinity" format="1">
  <advance width="776"/>
  <unicode hex="221E"/>
  <outline>
    <contour>
      <point x="209" y="154" type="curve" smooth="yes"/>
      <point x="281" y="154"/>
      <point x="343" y="206"/>
      <point x="382" y="287" type="curve"/>
      <point x="411" y="203"/>
      <point x="463" y="154"/>
      <point x="555" y="154" type="curve" smooth="yes"/>
      <point x="658" y="154"/>
      <point x="739" y="239"/>
      <point x="739" y="374" type="curve" smooth="yes"/>
      <point x="739" y="480"/>
      <point x="678" y="556"/>
      <point x="586" y="556" type="curve" smooth="yes"/>
      <point x="513" y="556"/>
      <point x="454" y="506"/>
      <point x="412" y="422" type="curve"/>
      <point x="384" y="500"/>
      <point x="341" y="556"/>
      <point x="243" y="556" type="curve" smooth="yes"/>
      <point x="137" y="556"/>
      <point x="55" y="470"/>
      <point x="55" y="341" type="curve" smooth="yes"/>
      <point x="55" y="227"/>
      <point x="121" y="154"/>
    </contour>
    <contour>
      <point x="426" y="378" type="curve" smooth="yes"/>
      <point x="425" y="381" type="line"/>
      <point x="462" y="456"/>
      <point x="510" y="504"/>
      <point x="578" y="504" type="curve" smooth="yes"/>
      <point x="652" y="504"/>
      <point x="697" y="448"/>
      <point x="697" y="369" type="curve" smooth="yes"/>
      <point x="697" y="274"/>
      <point x="645" y="207"/>
      <point x="570" y="207" type="curve" smooth="yes"/>
      <point x="496" y="207"/>
      <point x="463" y="247"/>
    </contour>
    <contour>
      <point x="98" y="345" type="curve" smooth="yes"/>
      <point x="98" y="438"/>
      <point x="144" y="503"/>
      <point x="229" y="503" type="curve" smooth="yes"/>
      <point x="300" y="503"/>
      <point x="341" y="456"/>
      <point x="369" y="334" type="curve" smooth="yes"/>
      <point x="370" y="331" type="line"/>
      <point x="334" y="255"/>
      <point x="285" y="206"/>
      <point x="217" y="206" type="curve" smooth="yes"/>
      <point x="143" y="206"/>
      <point x="98" y="262"/>
    </contour>
  </outline>
</glyph>
<glyph name="hook" format="1">
  <advance width="510"/>
  <unicode hex="2440"/>
  <outline>
    <contour>
      <point x="130" y="693" type="curve"/>
      <point x="184" y="693" type="line"/>
      <point x="190" y="719"/>
      <point x="207" y="736"/>
      <point x="244" y="736" type="curve" smooth="yes"/>
      <point x="276" y="736"/>
      <point x="293" y="721"/>
      <point x="293" y="696" type="curve" smooth="yes"/>
      <point x="293" y="659"/>
      <point x="264" y="643"/>
      <point x="203" y="640" type="curve"/>
      <point x="190" y="574" type="line"/>
      <point x="237" y="574" type="line"/>
      <point x="243" y="611" type="line"/>
      <point x="305" y="617"/>
      <point x="350" y="647"/>
      <point x="350" y="697" type="curve" smooth="yes"/>
      <point x="350" y="743"/>
      <point x="316" y="772"/>
      <point x="247" y="772" type="curve" smooth="yes"/>
      <point x="180" y="772"/>
      <point x="141" y="743"/>
    </contour>
    <contour>
      <point x="228" y="517" type="move" name="_top"/>
    </contour>
  </outline>
</glyph>
<glyph name="acute_dotaccent" format="1">
  <advance width="529"/>
  <outline>
    <contour>
      <point x="293" y="793" type="curve" smooth="yes"/>
      <point x="322" y="793"/>
      <point x="343" y="811"/>
      <point x="343" y="843" type="curve" smooth="yes"/>
      <point x="343" y="874"/>
      <point x="322" y="892"/>
      <point x="293" y="892" type="curve" smooth="yes"/>
      <point x="265" y="892"/>
      <point x="243" y="874"/>
      <point x="243" y="843" type="curve" smooth="yes"/>
      <point x="243" y="811"/>
      <point x="265" y="793"/>
    </contour>
    <contour>
      <point x="276" y="704" type="curve" smooth="yes"/>
      <point x="210" y="588" type="line"/>
      <point x="207" y="571" type="line"/>
      <point x="228" y="571" type="line"/>
      <point x="331" y="669" type="line" smooth="yes"/>
      <point x="351" y="688"/>
      <point x="367" y="705"/>
      <point x="367" y="725" type="curve" smooth="yes"/>
      <point x="367" y="743"/>
      <point x="353" y="756"/>
      <point x="333" y="756" type="curve" smooth="yes"/>
      <point x="309" y="756"/>
      <point x="297" y="739"/>
    </contour>
    <contour>
      <point x="227" y="539" type="move" name="_top"/>
    </contour>
  </outline>
</glyph>
<glyph name="arrowdownleft" format="1">
  <advance width="639"/>
  <outline>
    <contour>
      <point x="244" y="567" type="line"/>
      <point x="132" y="173" type="line"/>
      <point x="142" y="163" type="line"/>
      <point x="537" y="274" type="line"/>
      <point x="535" y="291" type="line"/>
      <point x="320" y="309" type="line"/>
      <point x="603" y="592" type="line"/>
      <point x="562" y="633" type="line"/>
      <point x="279" y="350" type="line"/>
      <point x="260" y="565" type="line"/>
    </contour>
  </outline>
</glyph>
<glyph name="asterisk.alt" format="1">
  <advance width="381"/>
  <outline>
    <contour>
      <point x="202" y="391" type="line"/>
      <point x="203" y="419"/>
      <point x="202" y="440"/>
      <point x="202" y="473" type="curve"/>
      <point x="200" y="474"/>
      <point x="198" y="476"/>
      <point x="196" y="478" type="curve"/>
      <point x="196" y="491"/>
      <point x="196" y="506"/>
      <point x="196" y="531" type="curve"/>
      <point x="197" y="532"/>
      <point x="198" y="533"/>
      <point x="199" y="534" type="curve"/>
      <point x="200" y="532"/>
      <point x="201" y="530"/>
      <point x="202" y="528" type="curve"/>
      <point x="202" y="507"/>
      <point x="202" y="489"/>
      <point x="202" y="473" type="curve"/>
      <point x="208" y="470"/>
      <point x="215" y="466"/>
      <point x="225" y="463" type="curve"/>
      <point x="213" y="481"/>
      <point x="215" y="502"/>
      <point x="202" y="528" type="curve"/>
      <point x="202" y="530" type="line"/>
      <point x="200" y="536" type="line"/>
      <point x="201" y="537"/>
      <point x="202" y="538"/>
      <point x="203" y="539" type="curve"/>
      <point x="204" y="540"/>
      <point x="206" y="540"/>
      <point x="207" y="541" type="curve"/>
      <point x="207" y="538"/>
      <point x="207" y="534"/>
      <point x="207" y="531" type="curve"/>
      <point x="247" y="540"/>
      <point x="248" y="536"/>
      <point x="274" y="542" type="curve"/>
      <point x="274" y="554"/>
      <point x="273" y="566"/>
      <point x="273" y="577" type="curve"/>
      <point x="279" y="581"/>
      <point x="285" y="585"/>
      <point x="292" y="587" type="curve"/>
      <point x="283" y="591"/>
      <point x="276" y="593"/>
      <point x="271" y="595" type="curve"/>
      <point x="268" y="623"/>
      <point x="264" y="648"/>
      <point x="264" y="666" type="curve"/>
      <point x="238" y="660"/>
      <point x="249" y="651"/>
      <point x="209" y="642" type="curve"/>
      <point x="209" y="627"/>
      <point x="208" y="610"/>
      <point x="208" y="590" type="curve"/>
      <point x="193" y="581"/>
      <point x="177" y="570"/>
      <point x="157" y="560" type="curve"/>
      <point x="160" y="558"/>
      <point x="163" y="555"/>
      <point x="168" y="552" type="curve"/>
      <point x="165" y="550"/>
      <point x="163" y="548"/>
      <point x="161" y="546" type="curve"/>
      <point x="170" y="546"/>
      <point x="180" y="544"/>
      <point x="196" y="537" type="curve"/>
      <point x="196" y="531" type="line"/>
      <point x="186" y="520"/>
      <point x="177" y="512"/>
      <point x="167" y="505" type="curve"/>
      <point x="182" y="500"/>
      <point x="182" y="489"/>
      <point x="196" y="478" type="curve"/>
      <point x="196" y="459"/>
      <point x="196" y="445"/>
      <point x="195" y="424" type="curve"/>
    </contour>
    <contour>
      <point x="129" y="549" type="curve"/>
      <point x="135" y="547"/>
      <point x="140" y="546"/>
      <point x="145" y="546" type="curve"/>
      <point x="147" y="541"/>
      <point x="149" y="536"/>
      <point x="151" y="532" type="curve"/>
      <point x="148" y="513"/>
      <point x="136" y="513"/>
      <point x="129" y="472" type="curve"/>
      <point x="138" y="485"/>
      <point x="152" y="493"/>
      <point x="167" y="505" type="curve"/>
      <point x="164" y="506" type="line"/>
      <point x="159" y="514"/>
      <point x="155" y="522"/>
      <point x="151" y="532" type="curve"/>
      <point x="152" y="536" type="line"/>
      <point x="154" y="539"/>
      <point x="157" y="543"/>
      <point x="161" y="546" type="curve"/>
      <point x="155" y="546"/>
      <point x="150" y="545"/>
      <point x="145" y="546" type="curve"/>
      <point x="144" y="548"/>
      <point x="143" y="551"/>
      <point x="141" y="554" type="curve"/>
      <point x="147" y="556"/>
      <point x="152" y="558"/>
      <point x="157" y="560" type="curve"/>
      <point x="147" y="569"/>
      <point x="141" y="578"/>
      <point x="126" y="583" type="curve"/>
      <point x="132" y="572"/>
      <point x="137" y="563"/>
      <point x="141" y="554" type="curve"/>
      <point x="137" y="552"/>
      <point x="133" y="550"/>
    </contour>
  </outline>
</glyph>
<glyph name="braceleft.uc" format="1">
  <advance width="324"/>
  <outline>
    <contour>
      <point x="235" y="-62" type="curve"/>
      <point x="245" y="-27" type="line"/>
      <point x="136" y="-22"/>
      <point x="89" y="10"/>
      <point x="89" y="70" type="curve" smooth="yes"/>
      <point x="89" y="149"/>
      <point x="228" y="251"/>
      <point x="228" y="295" type="curve" smooth="yes"/>
      <point x="228" y="319"/>
      <point x="206" y="334"/>
      <point x="108" y="355" type="curve"/>
      <point x="110" y="360" type="line"/>
      <point x="226" y="377"/>
      <point x="243" y="393"/>
      <point x="243" y="421" type="curve" smooth="yes"/>
      <point x="243" y="458"/>
      <point x="180" y="554"/>
      <point x="180" y="621" type="curve" smooth="yes"/>
      <point x="180" y="683"/>
      <point x="229" y="726"/>
      <point x="358" y="726" type="curve"/>
      <point x="353" y="761" type="line"/>
      <point x="219" y="763"/>
      <point x="115" y="723"/>
      <point x="115" y="625" type="curve" smooth="yes"/>
      <point x="115" y="561"/>
      <point x="167" y="482"/>
      <point x="196" y="414" type="curve"/>
      <point x="51" y="376" type="line"/>
      <point x="45" y="348" type="line"/>
      <point x="180" y="295" type="line"/>
      <point x="115" y="221"/>
      <point x="24" y="147"/>
      <point x="24" y="69" type="curve" smooth="yes"/>
      <point x="24" y="-19"/>
      <point x="104" y="-59"/>
    </contour>
  </outline>
</glyph>
<glyph name="breve.uc" format="1">
  <advance width="500"/>
  <outline>
    <contour>
      <point x="278" y="759" type="curve" smooth="yes"/>
      <point x="355" y="759"/>
      <point x="409" y="802"/>
      <point x="424" y="895" type="curve"/>
      <point x="382" y="895" type="line"/>
      <point x="367" y="836"/>
      <point x="338" y="813"/>
      <point x="279" y="813" type="curve" smooth="yes"/>
      <point x="221" y="813"/>
      <point x="196" y="835"/>
      <point x="196" y="895" type="curve"/>
      <point x="150" y="895" type="line"/>
      <point x="145" y="808"/>
      <point x="188" y="759"/>
    </contour>
    <contour>
      <point x="248" y="694" type="move" name="_top"/>
    </contour>
  </outline>
</glyph>
<glyph name="breve_hook" format="1">
  <advance width="510"/>
  <outline>
    <contour>
      <point x="192" y="832" type="curve"/>
      <point x="241" y="832" type="line"/>
      <point x="248" y="856"/>
      <point x="264" y="870"/>
      <point x="299" y="870" type="curve" smooth="yes"/>
      <point x="330" y="870"/>
      <point x="343" y="857"/>
      <point x="343" y="836" type="curve" smooth="yes"/>
      <point x="343" y="806"/>
      <point x="318" y="792"/>
      <point x="260" y="789" type="curve"/>
      <point x="251" y="732" type="line"/>
      <point x="293" y="732" type="line"/>
      <point x="298" y="761" type="line"/>
      <point x="355" y="767"/>
      <point x="396" y="792"/>
      <point x="396" y="838" type="curve" smooth="yes"/>
      <point x="396" y="879"/>
      <point x="362" y="904"/>
      <point x="301" y="904" type="curve" smooth="yes"/>
      <point x="237" y="904"/>
      <point x="202" y="874"/>
    </contour>
    <contour>
      <point x="154" y="736" type="line"/>
      <point x="153" y="728"/>
      <point x="152" y="717"/>
      <point x="152" y="711" type="curve" smooth="yes"/>
      <point x="152" y="633"/>
      <point x="194" y="587"/>
      <point x="271" y="587" type="curve" smooth="yes"/>
      <point x="340" y="587"/>
      <point x="397" y="629"/>
      <point x="413" y="736" type="curve"/>
      <point x="372" y="736" type="line"/>
      <point x="356" y="667"/>
      <point x="327" y="642"/>
      <point x="276" y="642" type="curve" smooth="yes"/>
      <point x="214" y="642"/>
      <point x="194" y="674"/>
      <point x="197" y="736" type="curve"/>
    </contour>
    <contour>
      <point x="247" y="525" type="move" name="_top"/>
    </contour>
  </outline>
</glyph>
<glyph name="breve_tilde" format="1">
  <advance width="500"/>
  <outline>
    <contour>
      <point x="226" y="890" type="curve" smooth="yes"/>
      <point x="177" y="890"/>
      <point x="146" y="861"/>
      <point x="127" y="787" type="curve"/>
      <point x="163" y="771" type="line"/>
      <point x="176" y="820"/>
      <point x="191" y="842"/>
      <point x="216" y="842" type="curve" smooth="yes"/>
      <point x="257" y="842"/>
      <point x="264" y="773"/>
      <point x="332" y="773" type="curve" smooth="yes"/>
      <point x="380" y="773"/>
      <point x="413" y="805"/>
      <point x="434" y="875" type="curve"/>
      <point x="397" y="892" type="line"/>
      <point x="383" y="849"/>
      <point x="368" y="821"/>
      <point x="342" y="821" type="curve" smooth="yes"/>
      <point x="302" y="821"/>
      <point x="292" y="890"/>
    </contour>
    <contour>
      <point x="267" y="642" type="curve" smooth="yes"/>
      <point x="214" y="642"/>
      <point x="188" y="666"/>
      <point x="189" y="721" type="curve"/>
      <point x="145" y="721" type="line"/>
      <point x="145" y="717"/>
      <point x="144" y="710"/>
      <point x="144" y="705" type="curve" smooth="yes"/>
      <point x="144" y="632"/>
      <point x="186" y="587"/>
      <point x="263" y="587" type="curve" smooth="yes"/>
      <point x="330" y="587"/>
      <point x="386" y="626"/>
      <point x="403" y="721" type="curve"/>
      <point x="361" y="721" type="line"/>
      <point x="345" y="665"/>
      <point x="317" y="642"/>
    </contour>
    <contour>
      <point x="248" y="524" type="move" name="_top"/>
    </contour>
  </outline>
</glyph>
<glyph name="breveinverted.uc" format="1">
  <advance width="500"/>
  <outline>
    <contour>
      <point x="226" y="895" type="curve" smooth="yes"/>
      <point x="149" y="895"/>
      <point x="95" y="852"/>
      <point x="80" y="759" type="curve"/>
      <point x="122" y="759" type="line"/>
      <point x="137" y="818"/>
      <point x="166" y="841"/>
      <point x="225" y="841" type="curve" smooth="yes"/>
      <point x="283" y="841"/>
      <point x="308" y="819"/>
      <point x="308" y="759" type="curve"/>
      <point x="354" y="759" type="line"/>
      <point x="359" y="846"/>
      <point x="316" y="895"/>
    </contour>
    <contour>
      <point x="243" y="691" type="move" name="_top"/>
    </contour>
  </outline>
</glyph>
<glyph name="cedi.proportional" format="1">
  <advance width="675"/>
  <outline>
    <contour>
      <point x="345" y="10" type="curve" smooth="yes"/>
      <point x="471" y="10"/>
      <point x="567" y="87"/>
      <point x="614" y="216" type="curve"/>
      <point x="573" y="242" type="line"/>
      <point x="533" y="127"/>
      <point x="456" y="55"/>
      <point x="348" y="55" type="curve" smooth="yes"/>
      <point x="346" y="55"/>
      <point x="343" y="55"/>
      <point x="341" y="55" type="curve"/>
      <point x="447" y="655" type="line"/>
      <point x="509" y="648"/>
      <point x="555" y="625"/>
      <point x="584" y="598" type="curve"/>
      <point x="568" y="503" type="line"/>
      <point x="638" y="503" type="line"/>
      <point x="655" y="605" type="line"/>
      <point x="629" y="637"/>
      <point x="561" y="687"/>
      <point x="455" y="698" type="curve"/>
      <point x="470" y="790" type="line"/>
      <point x="423" y="790" type="line"/>
      <point x="407" y="700" type="line"/>
      <point x="206" y="700"/>
      <point x="54" y="545"/>
      <point x="54" y="316" type="curve" smooth="yes"/>
      <point x="54" y="150"/>
      <point x="155" y="40"/>
      <point x="287" y="15" type="curve"/>
      <point x="263" y="-120" type="line"/>
      <point x="310" y="-120" type="line"/>
      <point x="333" y="10" type="line"/>
      <point x="337" y="10"/>
      <point x="341" y="10"/>
    </contour>
    <contour>
      <point x="123" y="310" type="curve" smooth="yes"/>
      <point x="123" y="501"/>
      <point x="228" y="652"/>
      <point x="400" y="657" type="curve"/>
      <point x="295" y="61" type="line"/>
      <point x="196" y="83"/>
      <point x="123" y="169"/>
    </contour>
  </outline>
</glyph>
<glyph name="cent.alt" format="1">
  <advance width="560"/>
  <outline>
    <contour>
      <point x="54" y="218" type="curve" smooth="yes"/>
      <point x="54" y="95"/>
      <point x="121" y="13"/>
      <point x="222" y="-7" type="curve"/>
      <point x="201" y="-126" type="line"/>
      <point x="249" y="-126" type="line"/>
      <point x="269" y="-12" type="line"/>
      <point x="270" y="-12"/>
      <point x="272" y="-12"/>
      <point x="274" y="-12" type="curve" smooth="yes"/>
      <point x="370" y="-12"/>
      <point x="443" y="40"/>
      <point x="483" y="127" type="curve"/>
      <point x="447" y="152" type="line"/>
      <point x="422" y="97"/>
      <point x="373" y="30"/>
      <point x="277" y="30" type="curve" smooth="yes"/>
      <point x="174" y="30"/>
      <point x="119" y="99"/>
      <point x="119" y="212" type="curve" smooth="yes"/>
      <point x="119" y="356"/>
      <point x="198" y="476"/>
      <point x="333" y="476" type="curve" smooth="yes"/>
      <point x="386" y="476"/>
      <point x="424" y="462"/>
      <point x="449" y="441" type="curve"/>
      <point x="433" y="357" type="line"/>
      <point x="499" y="357" type="line"/>
      <point x="516" y="451" type="line"/>
      <point x="500" y="472"/>
      <point x="450" y="510"/>
      <point x="362" y="517" type="curve"/>
      <point x="381" y="623" type="line"/>
      <point x="333" y="623" type="line"/>
      <point x="315" y="517" type="line"/>
      <point x="157" y="507"/>
      <point x="54" y="378"/>
    </contour>
  </outline>
</glyph>
<glyph name="circumflex_acute" format="1">
  <advance width="510"/>
  <outline>
    <contour>
      <point x="454" y="825" type="curve" smooth="yes"/>
      <point x="386" y="707" type="line"/>
      <point x="384" y="691" type="line"/>
      <point x="405" y="691" type="line"/>
      <point x="504" y="786" type="line" smooth="yes"/>
      <point x="523" y="805"/>
      <point x="540" y="821"/>
      <point x="540" y="841" type="curve" smooth="yes"/>
      <point x="540" y="858"/>
      <point x="527" y="872"/>
      <point x="507" y="872" type="curve" smooth="yes"/>
      <point x="484" y="872"/>
      <point x="472" y="856"/>
    </contour>
    <contour>
      <point x="313" y="742" type="line"/>
      <point x="243" y="742" type="line"/>
      <point x="113" y="599" type="line"/>
      <point x="111" y="589" type="line"/>
      <point x="142" y="589" type="line"/>
      <point x="272" y="696" type="line"/>
      <point x="359" y="589" type="line"/>
      <point x="390" y="589" type="line"/>
      <point x="392" y="599" type="line"/>
    </contour>
    <contour>
      <point x="232" y="558" type="move" name="_top"/>
    </contour>
  </outline>
</glyph>
<glyph name="circumflex_hook.uc" format="1">
  <advance width="510"/>
  <outline>
    <contour>
      <point x="363" y="942" type="curve"/>
      <point x="417" y="942" type="line"/>
      <point x="424" y="966"/>
      <point x="441" y="981"/>
      <point x="472" y="981" type="curve" smooth="yes"/>
      <point x="501" y="981"/>
      <point x="514" y="969"/>
      <point x="514" y="945" type="curve" smooth="yes"/>
      <point x="514" y="915"/>
      <point x="490" y="898"/>
      <point x="430" y="896" type="curve"/>
      <point x="419" y="838" type="line"/>
      <point x="466" y="838" type="line"/>
      <point x="472" y="869" type="line"/>
      <point x="530" y="876"/>
      <point x="572" y="901"/>
      <point x="572" y="947" type="curve" smooth="yes"/>
      <point x="572" y="991"/>
      <point x="538" y="1016"/>
      <point x="474" y="1016" type="curve" smooth="yes"/>
      <point x="413" y="1016"/>
      <point x="373" y="986"/>
    </contour>
    <contour>
      <point x="332" y="893" type="line"/>
      <point x="254" y="893" type="line"/>
      <point x="123" y="765" type="line"/>
      <point x="121" y="753" type="line"/>
      <point x="152" y="753" type="line"/>
      <point x="285" y="847" type="line"/>
      <point x="385" y="753" type="line"/>
      <point x="417" y="753" type="line"/>
      <point x="419" y="765" type="line"/>
    </contour>
    <contour>
      <point x="245" y="694" type="move" name="_top"/>
    </contour>
  </outline>
</glyph>
<glyph name="circumflexacute" format="1">
  <advance width="510"/>
  <outline>
    <component base="circumflex_acute" xOffset="3"/>
    <contour>
      <point x="247" y="497" type="move" name="_top"/>
    </contour>
  </outline>
</glyph>
<glyph name="circumflexcomb" format="1">
  <advance width="0"/>
  <outline>
    <component base="circumflex" xOffset="-554"/>
    <contour>
      <point x="3" y="529" type="move" name="_top"/>
    </contour>
  </outline>
</glyph>
<glyph name="colonsign" format="1">
  <advance width="560"/>
  <outline>
    <contour>
      <point x="283" y="10" type="curve" smooth="yes"/>
      <point x="402" y="10"/>
      <point x="488" y="93"/>
      <point x="536" y="225" type="curve"/>
      <point x="497" y="249" type="line"/>
      <point x="456" y="134"/>
      <point x="387" y="54"/>
      <point x="288" y="52" type="curve"/>
      <point x="459" y="639" type="line"/>
      <point x="484" y="629"/>
      <point x="505" y="616"/>
      <point x="521" y="601" type="curve"/>
      <point x="504" y="512" type="line"/>
      <point x="574" y="512" type="line"/>
      <point x="590" y="609" type="line"/>
      <point x="572" y="632"/>
      <point x="531" y="664"/>
      <point x="472" y="683" type="curve"/>
      <point x="503" y="790" type="line"/>
      <point x="459" y="790" type="line"/>
      <point x="431" y="694" type="line"/>
      <point x="409" y="698"/>
      <point x="386" y="700"/>
      <point x="361" y="700" type="curve" smooth="yes"/>
      <point x="353" y="700"/>
      <point x="346" y="700"/>
      <point x="339" y="699" type="curve"/>
      <point x="365" y="790" type="line"/>
      <point x="321" y="790" type="line"/>
      <point x="293" y="693" type="line"/>
      <point x="122" y="659"/>
      <point x="28" y="493"/>
      <point x="28" y="307" type="curve" smooth="yes"/>
      <point x="28" y="205"/>
      <point x="61" y="127"/>
      <point x="113" y="77" type="curve"/>
      <point x="56" y="-120" type="line"/>
      <point x="100" y="-120" type="line"/>
      <point x="149" y="48" type="line"/>
      <point x="175" y="32"/>
      <point x="203" y="21"/>
      <point x="233" y="15" type="curve"/>
      <point x="194" y="-120" type="line"/>
      <point x="238" y="-120" type="line"/>
      <point x="276" y="10" type="line"/>
      <point x="278" y="10"/>
      <point x="281" y="10"/>
    </contour>
    <contour>
      <point x="359" y="658" type="curve" smooth="yes"/>
      <point x="380" y="658"/>
      <point x="400" y="656"/>
      <point x="419" y="651" type="curve"/>
      <point x="245" y="56" type="line"/>
      <point x="214" y="62"/>
      <point x="186" y="76"/>
      <point x="163" y="97" type="curve"/>
      <point x="326" y="656" type="line"/>
      <point x="337" y="657"/>
      <point x="348" y="658"/>
    </contour>
    <contour>
      <point x="93" y="302" type="curve" smooth="yes"/>
      <point x="93" y="359"/>
      <point x="101" y="414"/>
      <point x="117" y="463" type="curve" smooth="yes"/>
      <point x="145" y="550"/>
      <point x="199" y="618"/>
      <point x="279" y="645" type="curve"/>
      <point x="131" y="138" type="line"/>
      <point x="107" y="178"/>
      <point x="93" y="233"/>
    </contour>
  </outline>
</glyph>
<glyph name="dieresis.uc" format="1">
  <advance width="500"/>
  <outline>
    <contour>
      <point x="173" y="786" type="curve" smooth="yes"/>
      <point x="202" y="786"/>
      <point x="223" y="805"/>
      <point x="223" y="836" type="curve" smooth="yes"/>
      <point x="223" y="867"/>
      <point x="202" y="886"/>
      <point x="173" y="886" type="curve" smooth="yes"/>
      <point x="145" y="886"/>
      <point x="124" y="867"/>
      <point x="124" y="836" type="curve" smooth="yes"/>
      <point x="124" y="805"/>
      <point x="145" y="786"/>
    </contour>
    <contour>
      <point x="383" y="786" type="curve" smooth="yes"/>
      <point x="412" y="786"/>
      <point x="433" y="805"/>
      <point x="433" y="836" type="curve" smooth="yes"/>
      <point x="433" y="867"/>
      <point x="412" y="886"/>
      <point x="383" y="886" type="curve" smooth="yes"/>
      <point x="355" y="886"/>
      <point x="334" y="867"/>
      <point x="334" y="836" type="curve" smooth="yes"/>
      <point x="334" y="805"/>
      <point x="355" y="786"/>
    </contour>
    <contour>
      <point x="252" y="694" type="move" name="_top"/>
    </contour>
  </outline>
</glyph>
<glyph name="dieresis_macron" format="1">
  <advance width="513"/>
  <outline>
    <contour>
      <point x="176" y="843" type="line"/>
      <point x="167" y="797" type="line"/>
      <point x="436" y="797" type="line"/>
      <point x="445" y="843" type="line"/>
    </contour>
    <contour>
      <point x="183" y="637" type="curve" smooth="yes"/>
      <point x="212" y="637"/>
      <point x="233" y="656"/>
      <point x="233" y="687" type="curve" smooth="yes"/>
      <point x="233" y="718"/>
      <point x="212" y="737"/>
      <point x="183" y="737" type="curve" smooth="yes"/>
      <point x="155" y="737"/>
      <point x="134" y="718"/>
      <point x="134" y="687" type="curve" smooth="yes"/>
      <point x="134" y="656"/>
      <point x="155" y="637"/>
    </contour>
    <contour>
      <point x="393" y="637" type="curve" smooth="yes"/>
      <point x="422" y="637"/>
      <point x="443" y="656"/>
      <point x="443" y="687" type="curve" smooth="yes"/>
      <point x="443" y="718"/>
      <point x="422" y="737"/>
      <point x="393" y="737" type="curve" smooth="yes"/>
      <point x="365" y="737"/>
      <point x="344" y="718"/>
      <point x="344" y="687" type="curve" smooth="yes"/>
      <point x="344" y="656"/>
      <point x="365" y="637"/>
    </contour>
    <contour>
      <point x="257" y="526" type="move" name="_top"/>
    </contour>
  </outline>
</glyph>
<glyph name="dotaccent.uc" format="1">
  <advance width="500"/>
  <outline>
    <contour>
      <point x="285" y="782" type="curve" smooth="yes"/>
      <point x="314" y="782"/>
      <point x="335" y="800"/>
      <point x="335" y="832" type="curve" smooth="yes"/>
      <point x="335" y="863"/>
      <point x="314" y="881"/>
      <point x="285" y="881" type="curve" smooth="yes"/>
      <point x="257" y="881"/>
      <point x="235" y="863"/>
      <point x="235" y="832" type="curve" smooth="yes"/>
      <point x="235" y="800"/>
      <point x="257" y="782"/>
    </contour>
    <contour>
      <point x="245" y="720" type="move" name="_top"/>
    </contour>
  </outline>
</glyph>
<glyph name="dotaccent_macron" format="1">
  <advance width="500"/>
  <outline>
    <contour>
      <point x="158" y="843" type="line"/>
      <point x="149" y="797" type="line"/>
      <point x="418" y="797" type="line"/>
      <point x="427" y="843" type="line"/>
    </contour>
    <contour>
      <point x="272" y="639" type="curve" smooth="yes"/>
      <point x="301" y="639"/>
      <point x="322" y="657"/>
      <point x="322" y="689" type="curve" smooth="yes"/>
      <point x="322" y="720"/>
      <point x="301" y="738"/>
      <point x="272" y="738" type="curve" smooth="yes"/>
      <point x="244" y="738"/>
      <point x="222" y="720"/>
      <point x="222" y="689" type="curve" smooth="yes"/>
      <point x="222" y="657"/>
      <point x="244" y="639"/>
    </contour>
    <contour>
      <point x="253" y="526" type="move" name="_top"/>
    </contour>
  </outline>
</glyph>
<glyph name="dotaccent_macron.uc" format="1">
  <advance width="500"/>
  <outline>
    <contour>
      <point x="153" y="968" type="line"/>
      <point x="144" y="922" type="line"/>
      <point x="413" y="922" type="line"/>
      <point x="422" y="968" type="line"/>
    </contour>
    <contour>
      <point x="273" y="782" type="curve" smooth="yes"/>
      <point x="302" y="782"/>
      <point x="323" y="800"/>
      <point x="323" y="832" type="curve" smooth="yes"/>
      <point x="323" y="863"/>
      <point x="302" y="881"/>
      <point x="273" y="881" type="curve" smooth="yes"/>
      <point x="245" y="881"/>
      <point x="223" y="863"/>
      <point x="223" y="832" type="curve" smooth="yes"/>
      <point x="223" y="800"/>
      <point x="245" y="782"/>
    </contour>
    <contour>
      <point x="283" y="694" type="move" name="_top"/>
    </contour>
  </outline>
</glyph>
<glyph name="dotbelow" format="1">
  <advance width="500"/>
  <outline>
    <contour>
      <point x="270" y="-204" type="curve" smooth="yes"/>
      <point x="299" y="-204"/>
      <point x="320" y="-186"/>
      <point x="320" y="-154" type="curve" smooth="yes"/>
      <point x="320" y="-123"/>
      <point x="299" y="-105"/>
      <point x="270" y="-105" type="curve" smooth="yes"/>
      <point x="242" y="-105"/>
      <point x="220" y="-123"/>
      <point x="220" y="-154" type="curve" smooth="yes"/>
      <point x="220" y="-186"/>
      <point x="242" y="-204"/>
    </contour>
    <contour>
      <point x="253" y="-35" type="move" name="_bottom"/>
    </contour>
  </outline>
</glyph>
<glyph name="f.alt3" format="1">
  <advance width="362"/>
  <outline>
    <contour>
      <point x="80" y="-223" type="line"/>
      <point x="110" y="-177"/>
      <point x="170" y="171"/>
      <point x="216" y="468" type="curve"/>
      <point x="372" y="468" type="line"/>
      <point x="379" y="508" type="line"/>
      <point x="223" y="508" type="line"/>
      <point x="234" y="584" type="line" smooth="yes"/>
      <point x="248" y="680"/>
      <point x="289" y="710"/>
      <point x="349" y="710" type="curve" smooth="yes"/>
      <point x="385" y="710"/>
      <point x="417" y="696"/>
      <point x="435" y="689" type="curve"/>
      <point x="443" y="734" type="line"/>
      <point x="429" y="741"/>
      <point x="398" y="752"/>
      <point x="351" y="752" type="curve" smooth="yes"/>
      <point x="263" y="752"/>
      <point x="189" y="709"/>
      <point x="172" y="589" type="curve" smooth="yes"/>
      <point x="160" y="508" type="line"/>
      <point x="59" y="508" type="line"/>
      <point x="52" y="468" type="line"/>
      <point x="153" y="468" type="line"/>
      <point x="47" y="-223" type="line"/>
    </contour>
  </outline>
</glyph>
<glyph name="f.alt4" format="1">
  <advance width="358"/>
  <outline>
    <contour>
      <point x="2" y="-223" type="line"/>
      <point x="107" y="-121"/>
      <point x="163" y="65"/>
      <point x="198" y="340" type="curve" smooth="yes"/>
      <point x="214" y="468" type="line"/>
      <point x="367" y="468" type="line"/>
      <point x="374" y="508" type="line"/>
      <point x="219" y="508" type="line"/>
      <point x="229" y="584" type="line" smooth="yes"/>
      <point x="241" y="680"/>
      <point x="284" y="710"/>
      <point x="344" y="710" type="curve" smooth="yes"/>
      <point x="381" y="710"/>
      <point x="412" y="696"/>
      <point x="430" y="689" type="curve"/>
      <point x="438" y="734" type="line"/>
      <point x="425" y="741"/>
      <point x="393" y="752"/>
      <point x="346" y="752" type="curve" smooth="yes"/>
      <point x="259" y="752"/>
      <point x="182" y="709"/>
      <point x="167" y="589" type="curve" smooth="yes"/>
      <point x="157" y="508" type="line"/>
      <point x="54" y="508" type="line"/>
      <point x="48" y="468" type="line"/>
      <point x="151" y="468" type="line"/>
      <point x="121" y="231" type="line" smooth="yes"/>
      <point x="91" y="-5"/>
      <point x="45" y="-115"/>
      <point x="-39" y="-213" type="curve"/>
      <point x="-39" y="-223" type="line"/>
    </contour>
  </outline>
</glyph>
<glyph name="f.alt6" format="1">
  <advance width="356"/>
  <outline>
    <contour>
      <point x="-41" y="-211" type="line"/>
      <point x="95" y="-141"/>
      <point x="164" y="-6"/>
      <point x="216" y="468" type="curve"/>
      <point x="368" y="468" type="line"/>
      <point x="374" y="508" type="line"/>
      <point x="221" y="508" type="line"/>
      <point x="229" y="577" type="line" smooth="yes"/>
      <point x="240" y="677"/>
      <point x="285" y="710"/>
      <point x="345" y="710" type="curve" smooth="yes"/>
      <point x="382" y="710"/>
      <point x="413" y="696"/>
      <point x="431" y="689" type="curve"/>
      <point x="439" y="734" type="line"/>
      <point x="425" y="741"/>
      <point x="394" y="752"/>
      <point x="348" y="752" type="curve" smooth="yes"/>
      <point x="259" y="752"/>
      <point x="181" y="706"/>
      <point x="168" y="583" type="curve" smooth="yes"/>
      <point x="159" y="508" type="line"/>
      <point x="55" y="508" type="line"/>
      <point x="48" y="468" type="line"/>
      <point x="155" y="468" type="line"/>
      <point x="142" y="361" type="line" smooth="yes"/>
      <point x="101" y="-5"/>
      <point x="53" y="-106"/>
      <point x="-63" y="-175" type="curve"/>
    </contour>
  </outline>
</glyph>
<glyph name="f_b" format="1">
  <advance width="896"/>
  <outline>
    <contour>
      <point x="107" y="-223" type="line"/>
      <point x="210" y="468" type="line"/>
      <point x="360" y="468" type="line"/>
      <point x="367" y="508" type="line"/>
      <point x="216" y="508" type="line"/>
      <point x="226" y="575" type="line" smooth="yes"/>
      <point x="241" y="675"/>
      <point x="286" y="710"/>
      <point x="361" y="710" type="curve" smooth="yes"/>
      <point x="418" y="710"/>
      <point x="457" y="694"/>
      <point x="490" y="668" type="curve"/>
      <point x="384" y="62" type="line"/>
      <point x="419" y="26"/>
      <point x="485" y="-11"/>
      <point x="573" y="-11" type="curve" smooth="yes"/>
      <point x="740" y="-11"/>
      <point x="854" y="143"/>
      <point x="854" y="319" type="curve" smooth="yes"/>
      <point x="854" y="440"/>
      <point x="799" y="518"/>
      <point x="695" y="518" type="curve" smooth="yes"/>
      <point x="618" y="518"/>
      <point x="559" y="470"/>
      <point x="503" y="387" type="curve"/>
      <point x="564" y="735" type="line"/>
      <point x="460" y="735" type="line"/>
      <point x="433" y="745"/>
      <point x="400" y="752"/>
      <point x="361" y="752" type="curve" smooth="yes"/>
      <point x="260" y="752"/>
      <point x="176" y="703"/>
      <point x="159" y="576" type="curve" smooth="yes"/>
      <point x="150" y="508" type="line"/>
      <point x="53" y="508" type="line"/>
      <point x="47" y="468" type="line"/>
      <point x="145" y="468" type="line"/>
      <point x="57" y="-223" type="line"/>
    </contour>
    <contour>
      <point x="687" y="475" type="curve" smooth="yes"/>
      <point x="758" y="475"/>
      <point x="787" y="413"/>
      <point x="787" y="322" type="curve" smooth="yes"/>
      <point x="787" y="169"/>
      <point x="705" y="32"/>
      <point x="575" y="32" type="curve" smooth="yes"/>
      <point x="524" y="32"/>
      <point x="479" y="51"/>
      <point x="450" y="81" type="curve"/>
      <point x="489" y="306" type="line"/>
      <point x="553" y="410"/>
      <point x="614" y="475"/>
    </contour>
  </outline>
</glyph>
<glyph name="f_f_h" format="1">
  <advance width="1208"/>
  <outline>
    <contour>
      <point x="107" y="-223" type="line"/>
      <point x="210" y="468" type="line"/>
      <point x="452" y="468" type="line"/>
      <point x="368" y="-193" type="line"/>
      <point x="418" y="-193" type="line"/>
      <point x="517" y="468" type="line"/>
      <point x="667" y="468" type="line"/>
      <point x="674" y="508" type="line"/>
      <point x="523" y="508" type="line"/>
      <point x="533" y="575" type="line" smooth="yes"/>
      <point x="548" y="675"/>
      <point x="593" y="710"/>
      <point x="667" y="710" type="curve" smooth="yes"/>
      <point x="725" y="710"/>
      <point x="765" y="694"/>
      <point x="797" y="667" type="curve"/>
      <point x="679" y="0" type="line"/>
      <point x="742" y="0" type="line"/>
      <point x="798" y="318" type="line"/>
      <point x="862" y="414"/>
      <point x="924" y="471"/>
      <point x="990" y="471" type="curve" smooth="yes"/>
      <point x="1036" y="471"/>
      <point x="1057" y="445"/>
      <point x="1057" y="406" type="curve" smooth="yes"/>
      <point x="1057" y="379"/>
      <point x="1052" y="353"/>
      <point x="1045" y="318" type="curve" smooth="yes"/>
      <point x="1020" y="193" type="line" smooth="yes"/>
      <point x="1008" y="131"/>
      <point x="1002" y="94"/>
      <point x="1002" y="65" type="curve" smooth="yes"/>
      <point x="1002" y="15"/>
      <point x="1035" y="-7"/>
      <point x="1083" y="-7" type="curve" smooth="yes"/>
      <point x="1116" y="-7"/>
      <point x="1147" y="5"/>
      <point x="1163" y="17" type="curve"/>
      <point x="1170" y="56" type="line"/>
      <point x="1161" y="53"/>
      <point x="1131" y="37"/>
      <point x="1099" y="37" type="curve" smooth="yes"/>
      <point x="1077" y="37"/>
      <point x="1065" y="47"/>
      <point x="1065" y="69" type="curve" smooth="yes"/>
      <point x="1065" y="90"/>
      <point x="1073" y="130"/>
      <point x="1081" y="175" type="curve" smooth="yes"/>
      <point x="1108" y="318" type="line" smooth="yes"/>
      <point x="1115" y="353"/>
      <point x="1120" y="384"/>
      <point x="1120" y="411" type="curve" smooth="yes"/>
      <point x="1120" y="476"/>
      <point x="1077" y="518"/>
      <point x="1007" y="518" type="curve" smooth="yes"/>
      <point x="932" y="518"/>
      <point x="869" y="468"/>
      <point x="810" y="385" type="curve"/>
      <point x="872" y="735" type="line"/>
      <point x="767" y="735" type="line"/>
      <point x="740" y="745"/>
      <point x="707" y="752"/>
      <point x="668" y="752" type="curve" smooth="yes"/>
      <point x="567" y="752"/>
      <point x="483" y="703"/>
      <point x="466" y="576" type="curve" smooth="yes"/>
      <point x="457" y="508" type="line"/>
      <point x="216" y="508" type="line"/>
      <point x="225" y="569" type="line" smooth="yes"/>
      <point x="239" y="666"/>
      <point x="276" y="695"/>
      <point x="334" y="695" type="curve" smooth="yes"/>
      <point x="369" y="695"/>
      <point x="400" y="683"/>
      <point x="413" y="678" type="curve"/>
      <point x="421" y="722" type="line"/>
      <point x="411" y="727"/>
      <point x="379" y="737"/>
      <point x="334" y="737" type="curve" smooth="yes"/>
      <point x="251" y="737"/>
      <point x="174" y="695"/>
      <point x="158" y="569" type="curve" smooth="yes"/>
      <point x="150" y="508" type="line"/>
      <point x="53" y="508" type="line"/>
      <point x="47" y="468" type="line"/>
      <point x="145" y="468" type="line"/>
      <point x="57" y="-223" type="line"/>
    </contour>
  </outline>
</glyph>
<glyph name="f_h" format="1">
  <advance width="901"/>
  <outline>
    <contour>
      <point x="107" y="-223" type="line"/>
      <point x="210" y="468" type="line"/>
      <point x="360" y="468" type="line"/>
      <point x="367" y="508" type="line"/>
      <point x="216" y="508" type="line"/>
      <point x="226" y="575" type="line" smooth="yes"/>
      <point x="241" y="675"/>
      <point x="286" y="710"/>
      <point x="361" y="710" type="curve" smooth="yes"/>
      <point x="418" y="710"/>
      <point x="458" y="694"/>
      <point x="490" y="667" type="curve"/>
      <point x="372" y="0" type="line"/>
      <point x="435" y="0" type="line"/>
      <point x="491" y="318" type="line"/>
      <point x="555" y="414"/>
      <point x="617" y="471"/>
      <point x="683" y="471" type="curve" smooth="yes"/>
      <point x="730" y="471"/>
      <point x="750" y="445"/>
      <point x="750" y="406" type="curve" smooth="yes"/>
      <point x="750" y="379"/>
      <point x="745" y="353"/>
      <point x="738" y="318" type="curve" smooth="yes"/>
      <point x="713" y="193" type="line" smooth="yes"/>
      <point x="701" y="131"/>
      <point x="695" y="94"/>
      <point x="695" y="65" type="curve" smooth="yes"/>
      <point x="695" y="15"/>
      <point x="728" y="-7"/>
      <point x="776" y="-7" type="curve" smooth="yes"/>
      <point x="809" y="-7"/>
      <point x="840" y="5"/>
      <point x="856" y="17" type="curve"/>
      <point x="863" y="56" type="line"/>
      <point x="854" y="53"/>
      <point x="824" y="37"/>
      <point x="792" y="37" type="curve" smooth="yes"/>
      <point x="770" y="37"/>
      <point x="758" y="47"/>
      <point x="758" y="69" type="curve" smooth="yes"/>
      <point x="758" y="90"/>
      <point x="766" y="130"/>
      <point x="774" y="175" type="curve" smooth="yes"/>
      <point x="801" y="318" type="line" smooth="yes"/>
      <point x="808" y="353"/>
      <point x="813" y="384"/>
      <point x="813" y="411" type="curve" smooth="yes"/>
      <point x="813" y="476"/>
      <point x="770" y="518"/>
      <point x="700" y="518" type="curve" smooth="yes"/>
      <point x="625" y="518"/>
      <point x="562" y="468"/>
      <point x="503" y="385" type="curve"/>
      <point x="565" y="735" type="line"/>
      <point x="460" y="735" type="line"/>
      <point x="433" y="745"/>
      <point x="400" y="752"/>
      <point x="361" y="752" type="curve" smooth="yes"/>
      <point x="260" y="752"/>
      <point x="176" y="703"/>
      <point x="159" y="576" type="curve" smooth="yes"/>
      <point x="150" y="508" type="line"/>
      <point x="53" y="508" type="line"/>
      <point x="47" y="468" type="line"/>
      <point x="145" y="468" type="line"/>
      <point x="57" y="-223" type="line"/>
    </contour>
  </outline>
</glyph>
<glyph name="f_k" format="1">
  <advance width="832"/>
  <outline>
    <contour>
      <point x="107" y="-223" type="line"/>
      <point x="210" y="468" type="line"/>
      <point x="360" y="468" type="line"/>
      <point x="367" y="508" type="line"/>
      <point x="216" y="508" type="line"/>
      <point x="226" y="575" type="line" smooth="yes"/>
      <point x="241" y="675"/>
      <point x="286" y="710"/>
      <point x="361" y="710" type="curve" smooth="yes"/>
      <point x="418" y="710"/>
      <point x="457" y="694"/>
      <point x="490" y="668" type="curve"/>
      <point x="373" y="0" type="line"/>
      <point x="436" y="0" type="line"/>
      <point x="564" y="735" type="line"/>
      <point x="460" y="735" type="line"/>
      <point x="433" y="745"/>
      <point x="400" y="752"/>
      <point x="361" y="752" type="curve" smooth="yes"/>
      <point x="260" y="752"/>
      <point x="176" y="703"/>
      <point x="159" y="576" type="curve" smooth="yes"/>
      <point x="150" y="508" type="line"/>
      <point x="53" y="508" type="line"/>
      <point x="47" y="468" type="line"/>
      <point x="145" y="468" type="line"/>
      <point x="57" y="-223" type="line"/>
    </contour>
    <contour>
      <point x="792" y="19" type="curve"/>
      <point x="800" y="58" type="line"/>
      <point x="792" y="56"/>
      <point x="764" y="42"/>
      <point x="738" y="42" type="curve" smooth="yes"/>
      <point x="711" y="42"/>
      <point x="687" y="72"/>
      <point x="660" y="133" type="curve" smooth="yes"/>
      <point x="588" y="296" type="line"/>
      <point x="831" y="498" type="line"/>
      <point x="831" y="508" type="line"/>
      <point x="766" y="508" type="line"/>
      <point x="529" y="292" type="line"/>
      <point x="528" y="287" type="line"/>
      <point x="603" y="115" type="line" smooth="yes"/>
      <point x="640" y="28"/>
      <point x="671" y="-7"/>
      <point x="723" y="-7" type="curve" smooth="yes"/>
      <point x="752" y="-7"/>
      <point x="778" y="7"/>
    </contour>
  </outline>
</glyph>
<glyph name="five.sub" format="1">
  <advance width="324"/>
  <outline>
    <contour>
      <point x="100" y="-114" type="curve" smooth="yes"/>
      <point x="185" y="-114"/>
      <point x="242" y="-56"/>
      <point x="242" y="17" type="curve" smooth="yes"/>
      <point x="242" y="79"/>
      <point x="197" y="124"/>
      <point x="131" y="124" type="curve" smooth="yes"/>
      <point x="100" y="124"/>
      <point x="73" y="112"/>
      <point x="53" y="92" type="curve"/>
      <point x="71" y="193" type="line"/>
      <point x="232" y="193" type="line"/>
      <point x="248" y="241" type="line"/>
      <point x="43" y="241" type="line"/>
      <point x="8" y="46" type="line"/>
      <point x="40" y="46" type="line"/>
      <point x="57" y="74"/>
      <point x="84" y="89"/>
      <point x="116" y="89" type="curve" smooth="yes"/>
      <point x="158" y="89"/>
      <point x="183" y="63"/>
      <point x="183" y="17" type="curve" smooth="yes"/>
      <point x="183" y="-36"/>
      <point x="153" y="-79"/>
      <point x="98" y="-79" type="curve" smooth="yes"/>
      <point x="44" y="-79"/>
      <point x="13" y="-45"/>
      <point x="1" y="-5" type="curve"/>
      <point x="-35" y="-24" type="line"/>
      <point x="-17" y="-79"/>
      <point x="27" y="-114"/>
    </contour>
  </outline>
</glyph>
<glyph name="four.old" format="1">
  <advance width="560"/>
  <outline>
    <contour>
      <point x="9" y="54" type="line"/>
      <point x="333" y="54" type="line"/>
      <point x="299" y="-137" type="line"/>
      <point x="362" y="-137" type="line"/>
      <point x="395" y="54" type="line"/>
      <point x="514" y="54" type="line"/>
      <point x="523" y="104" type="line"/>
      <point x="404" y="104" type="line"/>
      <point x="482" y="548" type="line"/>
      <point x="394" y="548" type="line"/>
      <point x="18" y="108" type="line"/>
    </contour>
    <contour>
      <point x="73" y="104" type="line"/>
      <point x="412" y="504" type="line"/>
      <point x="341" y="104" type="line"/>
    </contour>
  </outline>
</glyph>
<glyph name="four.sup" format="1">
  <advance width="325"/>
  <outline>
    <contour>
      <point x="41" y="456" type="line"/>
      <point x="213" y="456" type="line"/>
      <point x="198" y="369" type="line"/>
      <point x="252" y="369" type="line"/>
      <point x="267" y="456" type="line"/>
      <point x="329" y="456" type="line"/>
      <point x="336" y="498" type="line"/>
      <point x="275" y="498" type="line"/>
      <point x="312" y="710" type="line"/>
      <point x="245" y="710" type="line"/>
      <point x="49" y="501" type="line"/>
    </contour>
    <contour>
      <point x="90" y="498" type="line"/>
      <point x="251" y="669" type="line"/>
      <point x="221" y="498" type="line"/>
    </contour>
  </outline>
</glyph>
<glyph name="guillemotright" format="1">
  <advance width="480"/>
  <outline>
    <contour>
      <point x="400.0" y="292.0" type="line"/>
      <point x="220.0" y="75.0" type="line"/>
      <point x="259.0" y="75.0" type="line"/>
      <point x="436.0" y="238.0" type="line"/>
      <point x="443.0" y="274.0" type="line"/>
      <point x="332.0" y="455.0" type="line"/>
      <point x="295.0" y="455.0" type="line"/>
      <point x="389.0" y="230.0" type="line"/>
    </contour>
    <contour>
      <point x="211.0" y="292.0" type="line"/>
      <point x="31.0" y="75.0" type="line"/>
      <point x="70.0" y="75.0" type="line"/>
      <point x="247.0" y="238.0" type="line"/>
      <point x="254.0" y="274.0" type="line"/>
      <point x="143.0" y="455.0" type="line"/>
      <point x="106.0" y="455.0" type="line"/>
      <point x="200.0" y="230.0" type="line"/>
    </contour>
  </outline>
</glyph>
<glyph name="lira.altprop" format="1">
  <advance width="600"/>
  <outline>
    <contour>
      <point x="10" y="0" type="line"/>
      <point x="505" y="0" type="line"/>
      <point x="537" y="190" type="line"/>
      <point x="496" y="190" type="line"/>
      <point x="470" y="93" type="line" smooth="yes"/>
      <point x="460" y="57"/>
      <point x="423" y="50"/>
      <point x="337" y="50" type="curve" smooth="yes"/>
      <point x="96" y="50" type="line"/>
      <point x="177" y="85"/>
      <point x="233" y="158"/>
      <point x="245" y="243" type="curve"/>
      <point x="429" y="243" type="line"/>
      <point x="436" y="283" type="line"/>
      <point x="247" y="283" type="line"/>
      <point x="246" y="323"/>
      <point x="237" y="360"/>
      <point x="229" y="398" type="curve"/>
      <point x="456" y="398" type="line"/>
      <point x="463" y="438" type="line"/>
      <point x="222" y="438" type="line"/>
      <point x="219" y="457"/>
      <point x="217" y="476"/>
      <point x="217" y="497" type="curve" smooth="yes"/>
      <point x="217" y="593"/>
      <point x="262" y="674"/>
      <point x="385" y="674" type="curve" smooth="yes"/>
      <point x="438" y="674"/>
      <point x="478" y="659"/>
      <point x="507" y="638" type="curve"/>
      <point x="492" y="556" type="line"/>
      <point x="558" y="556" type="line"/>
      <point x="575" y="657" type="line"/>
      <point x="553" y="678"/>
      <point x="487" y="718"/>
      <point x="388" y="718" type="curve" smooth="yes"/>
      <point x="225" y="718"/>
      <point x="149" y="619"/>
      <point x="149" y="502" type="curve" smooth="yes"/>
      <point x="149" y="480"/>
      <point x="151" y="459"/>
      <point x="155" y="438" type="curve"/>
      <point x="81" y="438" type="line"/>
      <point x="74" y="398" type="line"/>
      <point x="164" y="398" type="line"/>
      <point x="174" y="357"/>
      <point x="187" y="319"/>
      <point x="189" y="283" type="curve"/>
      <point x="54" y="283" type="line"/>
      <point x="47" y="243" type="line"/>
      <point x="189" y="243" type="line"/>
      <point x="177" y="144"/>
      <point x="100" y="86"/>
      <point x="19" y="53" type="curve"/>
    </contour>
  </outline>
</glyph>
<glyph name="macron_acute" format="1">
  <advance width="556"/>
  <outline>
    <contour>
      <point x="326" y="868" type="curve" smooth="yes"/>
      <point x="260" y="752" type="line"/>
      <point x="257" y="735" type="line"/>
      <point x="278" y="735" type="line"/>
      <point x="381" y="833" type="line" smooth="yes"/>
      <point x="401" y="852"/>
      <point x="417" y="869"/>
      <point x="417" y="889" type="curve" smooth="yes"/>
      <point x="417" y="907"/>
      <point x="403" y="920"/>
      <point x="383" y="920" type="curve" smooth="yes"/>
      <point x="359" y="920"/>
      <point x="347" y="903"/>
    </contour>
    <contour>
      <point x="169" y="690" type="line"/>
      <point x="160" y="644" type="line"/>
      <point x="429" y="644" type="line"/>
      <point x="438" y="690" type="line"/>
    </contour>
    <contour>
      <point x="273" y="526" type="move" name="_top"/>
    </contour>
  </outline>
</glyph>
<glyph name="macrondieresis" format="1">
  <advance width="500"/>
  <outline>
    <component base="macron_dieresis" xOffset="3"/>
    <contour>
      <point x="253" y="567" type="move" name="_top"/>
    </contour>
  </outline>
</glyph>
<glyph name="naira.proportional" format="1">
  <advance width="737"/>
  <outline>
    <contour>
      <point x="12" y="0" type="line"/>
      <point x="240" y="0" type="line"/>
      <point x="248" y="38" type="line"/>
      <point x="234" y="38" type="line" smooth="yes"/>
      <point x="197" y="38"/>
      <point x="151" y="46"/>
      <point x="152" y="53" type="curve" smooth="yes"/>
      <point x="186" y="247" type="line"/>
      <point x="387" y="247" type="line"/>
      <point x="460" y="0" type="line"/>
      <point x="537" y="0" type="line"/>
      <point x="581" y="247" type="line"/>
      <point x="668" y="247" type="line"/>
      <point x="675" y="287" type="line"/>
      <point x="588" y="287" type="line"/>
      <point x="609" y="404" type="line"/>
      <point x="695" y="404" type="line"/>
      <point x="703" y="444" type="line"/>
      <point x="616" y="444" type="line"/>
      <point x="649" y="631" type="line" smooth="yes"/>
      <point x="654" y="660"/>
      <point x="686" y="672"/>
      <point x="728" y="672" type="curve" smooth="yes"/>
      <point x="740" y="672" type="line"/>
      <point x="747" y="710" type="line"/>
      <point x="518" y="710" type="line"/>
      <point x="511" y="672" type="line"/>
      <point x="525" y="672" type="line"/>
      <point x="562" y="672"/>
      <point x="608" y="664"/>
      <point x="607" y="657" type="curve" smooth="yes"/>
      <point x="569" y="444" type="line"/>
      <point x="389" y="444" type="line"/>
      <point x="312" y="710" type="line"/>
      <point x="138" y="710" type="line"/>
      <point x="130" y="672" type="line"/>
      <point x="141" y="672" type="line" smooth="yes"/>
      <point x="183" y="672"/>
      <point x="212" y="665"/>
      <point x="207" y="636" type="curve" smooth="yes"/>
      <point x="173" y="444" type="line"/>
      <point x="83" y="444" type="line"/>
      <point x="76" y="404" type="line"/>
      <point x="166" y="404" type="line"/>
      <point x="146" y="287" type="line"/>
      <point x="55" y="287" type="line"/>
      <point x="48" y="247" type="line"/>
      <point x="139" y="247" type="line"/>
      <point x="109" y="79" type="line" smooth="yes"/>
      <point x="104" y="50"/>
      <point x="72" y="38"/>
      <point x="30" y="38" type="curve" smooth="yes"/>
      <point x="19" y="38" type="line"/>
    </contour>
    <contour>
      <point x="193" y="287" type="line"/>
      <point x="261" y="674" type="line"/>
      <point x="375" y="287" type="line"/>
    </contour>
    <contour>
      <point x="400" y="404" type="line"/>
      <point x="562" y="404" type="line"/>
      <point x="501" y="57" type="line"/>
    </contour>
  </outline>
</glyph>
<glyph name="nine.lin" format="1">
  <advance width="560"/>
  <outline>
    <contour>
      <point x="301" y="720" type="curve" smooth="yes"/>
      <point x="150" y="720"/>
      <point x="58" y="604"/>
      <point x="58" y="483" type="curve" smooth="yes"/>
      <point x="58" y="364"/>
      <point x="141" y="278"/>
      <point x="258" y="278" type="curve" smooth="yes"/>
      <point x="333" y="278"/>
      <point x="402" y="318"/>
      <point x="447" y="381" type="curve"/>
      <point x="443" y="363"/>
      <point x="437" y="346"/>
      <point x="431" y="330" type="curve" smooth="yes"/>
      <point x="380" y="151"/>
      <point x="238" y="41"/>
      <point x="35" y="29" type="curve"/>
      <point x="34" y="-15" type="line"/>
      <point x="362" y="-2"/>
      <point x="524" y="239"/>
      <point x="524" y="467" type="curve" smooth="yes"/>
      <point x="524" y="621"/>
      <point x="437" y="720"/>
    </contour>
    <contour>
      <point x="126" y="481" type="curve" smooth="yes"/>
      <point x="126" y="495"/>
      <point x="127" y="508"/>
      <point x="130" y="522" type="curve" smooth="yes"/>
      <point x="146" y="612"/>
      <point x="206" y="676"/>
      <point x="299" y="676" type="curve" smooth="yes"/>
      <point x="395" y="676"/>
      <point x="457" y="601"/>
      <point x="457" y="477" type="curve" smooth="yes"/>
      <point x="457" y="467"/>
      <point x="457" y="458"/>
      <point x="456" y="448" type="curve"/>
      <point x="410" y="368"/>
      <point x="344" y="322"/>
      <point x="267" y="322" type="curve" smooth="yes"/>
      <point x="182" y="322"/>
      <point x="126" y="385"/>
    </contour>
  </outline>
</glyph>
<glyph name="nine.sup" format="1">
  <advance width="324"/>
  <outline>
    <contour>
      <point x="225" y="715" type="curve" smooth="yes"/>
      <point x="138" y="715"/>
      <point x="90" y="659"/>
      <point x="90" y="595" type="curve" smooth="yes"/>
      <point x="90" y="535"/>
      <point x="133" y="490"/>
      <point x="199" y="490" type="curve" smooth="yes"/>
      <point x="237" y="490"/>
      <point x="268" y="508"/>
      <point x="290" y="534" type="curve"/>
      <point x="271" y="449"/>
      <point x="206" y="393"/>
      <point x="95" y="384" type="curve"/>
      <point x="96" y="351" type="line"/>
      <point x="266" y="361"/>
      <point x="353" y="463"/>
      <point x="353" y="581" type="curve" smooth="yes"/>
      <point x="353" y="665"/>
      <point x="302" y="715"/>
    </contour>
    <contour>
      <point x="149" y="594" type="curve" smooth="yes"/>
      <point x="149" y="642"/>
      <point x="173" y="681"/>
      <point x="223" y="681" type="curve" smooth="yes"/>
      <point x="266" y="681"/>
      <point x="295" y="650"/>
      <point x="295" y="588" type="curve" smooth="yes"/>
      <point x="295" y="584"/>
      <point x="295" y="579"/>
      <point x="295" y="575" type="curve"/>
      <point x="273" y="542"/>
      <point x="246" y="525"/>
      <point x="212" y="525" type="curve" smooth="yes"/>
      <point x="172" y="525"/>
      <point x="149" y="554"/>
    </contour>
  </outline>
</glyph>
<glyph name="one.num" format="1">
  <advance width="320"/>
  <outline>
    <contour>
      <point x="213" y="422" type="curve" smooth="yes"/>
      <point x="264" y="710" type="line"/>
      <point x="226" y="710" type="line"/>
      <point x="201" y="681"/>
      <point x="163" y="668"/>
      <point x="102" y="667" type="curve"/>
      <point x="95" y="627" type="line"/>
      <point x="139" y="626"/>
      <point x="177" y="636"/>
      <point x="200" y="658" type="curve"/>
      <point x="158" y="422" type="line" smooth="yes"/>
      <point x="155" y="404"/>
      <point x="130" y="400"/>
      <point x="95" y="400" type="curve" smooth="yes"/>
      <point x="65" y="400" type="line"/>
      <point x="60" y="369" type="line"/>
      <point x="290" y="369" type="line"/>
      <point x="295" y="400" type="line"/>
      <point x="272" y="400" type="line" smooth="yes"/>
      <point x="234" y="400"/>
      <point x="210" y="404"/>
    </contour>
  </outline>
</glyph>
<glyph name="schwa" format="1">
  <advance width="483"/>
  <outline>
    <contour>
      <point x="441" y="293" type="curve" smooth="yes"/>
      <point x="441" y="435"/>
      <point x="360" y="518"/>
      <point x="241" y="518" type="curve" smooth="yes"/>
      <point x="150" y="518"/>
      <point x="86" y="473"/>
      <point x="47" y="418" type="curve"/>
      <point x="71" y="384" type="line"/>
      <point x="112" y="437"/>
      <point x="159" y="475"/>
      <point x="239" y="475" type="curve" smooth="yes"/>
      <point x="324" y="475"/>
      <point x="375" y="417"/>
      <point x="376" y="298" type="curve"/>
      <point x="147" y="294"/>
      <point x="32" y="232"/>
      <point x="32" y="117" type="curve" smooth="yes"/>
      <point x="32" y="40"/>
      <point x="89" y="-12"/>
      <point x="181" y="-12" type="curve" smooth="yes"/>
      <point x="345" y="-12"/>
      <point x="441" y="135"/>
    </contour>
    <contour>
      <point x="93" y="116" type="curve" smooth="yes"/>
      <point x="93" y="205"/>
      <point x="165" y="255"/>
      <point x="375" y="261" type="curve"/>
      <point x="363" y="123"/>
      <point x="286" y="31"/>
      <point x="184" y="31" type="curve" smooth="yes"/>
      <point x="126" y="31"/>
      <point x="93" y="63"/>
    </contour>
  </outline>
</glyph>
<glyph name="seven.lin" format="1">
  <advance width="560"/>
  <outline>
    <contour>
      <point x="279" y="654" type="curve" smooth="yes"/>
      <point x="518" y="654" type="line"/>
      <point x="403" y="543"/>
      <point x="218" y="312"/>
      <point x="156" y="0" type="curve"/>
      <point x="224" y="0" type="line"/>
      <point x="286" y="325"/>
      <point x="416" y="495"/>
      <point x="573" y="655" type="curve"/>
      <point x="582" y="710" type="line"/>
      <point x="115" y="710" type="line"/>
      <point x="82" y="521" type="line"/>
      <point x="121" y="521" type="line"/>
      <point x="146" y="611" type="line" smooth="yes"/>
      <point x="156" y="647"/>
      <point x="193" y="654"/>
    </contour>
  </outline>
</glyph>
<glyph name="seven.sup" format="1">
  <advance width="324"/>
  <outline>
    <contour>
      <point x="207" y="668" type="curve" smooth="yes"/>
      <point x="320" y="668" type="line"/>
      <point x="257" y="616"/>
      <point x="164" y="499"/>
      <point x="140" y="369" type="curve"/>
      <point x="200" y="369" type="line"/>
      <point x="220" y="511"/>
      <point x="272" y="583"/>
      <point x="361" y="669" type="curve"/>
      <point x="368" y="710" type="line"/>
      <point x="116" y="710" type="line"/>
      <point x="96" y="597" type="line"/>
      <point x="126" y="597" type="line"/>
      <point x="139" y="644" type="line" smooth="yes"/>
      <point x="144" y="664"/>
      <point x="163" y="668"/>
    </contour>
  </outline>
</glyph>
<glyph name="six.den" format="1">
  <advance width="324"/>
  <outline>
    <contour>
      <point x="120" y="-6" type="curve" smooth="yes"/>
      <point x="209" y="-6"/>
      <point x="257" y="57"/>
      <point x="257" y="121" type="curve" smooth="yes"/>
      <point x="257" y="182"/>
      <point x="215" y="226"/>
      <point x="150" y="226" type="curve" smooth="yes"/>
      <point x="114" y="226"/>
      <point x="82" y="210"/>
      <point x="60" y="186" type="curve"/>
      <point x="84" y="262"/>
      <point x="152" y="317"/>
      <point x="255" y="323" type="curve"/>
      <point x="254" y="357" type="line"/>
      <point x="84" y="349"/>
      <point x="-9" y="238"/>
      <point x="-9" y="125" type="curve" smooth="yes"/>
      <point x="-9" y="42"/>
      <point x="43" y="-6"/>
    </contour>
    <contour>
      <point x="49" y="118" type="curve" smooth="yes"/>
      <point x="49" y="127"/>
      <point x="49" y="135"/>
      <point x="50" y="144" type="curve"/>
      <point x="73" y="176"/>
      <point x="102" y="192"/>
      <point x="135" y="192" type="curve" smooth="yes"/>
      <point x="175" y="192"/>
      <point x="198" y="164"/>
      <point x="198" y="122" type="curve" smooth="yes"/>
      <point x="198" y="74"/>
      <point x="172" y="28"/>
      <point x="120" y="28" type="curve" smooth="yes"/>
      <point x="77" y="28"/>
      <point x="49" y="57"/>
    </contour>
  </outline>
</glyph>
<glyph name="six.lin" format="1">
  <advance width="560"/>
  <outline>
    <contour>
      <point x="269" y="-10" type="curve" smooth="yes"/>
      <point x="409" y="-10"/>
      <point x="513" y="109"/>
      <point x="513" y="252" type="curve" smooth="yes"/>
      <point x="513" y="375"/>
      <point x="433" y="456"/>
      <point x="316" y="456" type="curve" smooth="yes"/>
      <point x="241" y="456"/>
      <point x="173" y="417"/>
      <point x="126" y="356" type="curve"/>
      <point x="128" y="361"/>
      <point x="129" y="366"/>
      <point x="131" y="371" type="curve" smooth="yes"/>
      <point x="179" y="549"/>
      <point x="332" y="674"/>
      <point x="518" y="696" type="curve"/>
      <point x="520" y="740" type="line"/>
      <point x="229" y="709"/>
      <point x="42" y="479"/>
      <point x="42" y="248" type="curve" smooth="yes"/>
      <point x="42" y="84"/>
      <point x="138" y="-10"/>
    </contour>
    <contour>
      <point x="110" y="236" type="curve" smooth="yes"/>
      <point x="110" y="255"/>
      <point x="111" y="274"/>
      <point x="113" y="293" type="curve"/>
      <point x="163" y="368"/>
      <point x="231" y="412"/>
      <point x="305" y="412" type="curve" smooth="yes"/>
      <point x="397" y="412"/>
      <point x="444" y="342"/>
      <point x="444" y="255" type="curve" smooth="yes"/>
      <point x="444" y="225"/>
      <point x="439" y="196"/>
      <point x="430" y="170" type="curve" smooth="yes"/>
      <point x="407" y="92"/>
      <point x="349" y="34"/>
      <point x="270" y="34" type="curve" smooth="yes"/>
      <point x="178" y="34"/>
      <point x="110" y="101"/>
    </contour>
  </outline>
</glyph>
<glyph name="three.old" format="1">
  <advance width="560"/>
  <outline>
    <contour>
      <point x="312" y="558" type="curve" smooth="yes"/>
      <point x="222" y="558"/>
      <point x="159" y="523"/>
      <point x="125" y="499" type="curve"/>
      <point x="108" y="392" type="line"/>
      <point x="175" y="392" type="line"/>
      <point x="188" y="481" type="line"/>
      <point x="218" y="499"/>
      <point x="258" y="514"/>
      <point x="310" y="514" type="curve" smooth="yes"/>
      <point x="397" y="514"/>
      <point x="444" y="472"/>
      <point x="444" y="400" type="curve" smooth="yes"/>
      <point x="444" y="303"/>
      <point x="378" y="246"/>
      <point x="250" y="246" type="curve" smooth="yes"/>
      <point x="190" y="246" type="line"/>
      <point x="183" y="203" type="line"/>
      <point x="243" y="203" type="line" smooth="yes"/>
      <point x="375" y="203"/>
      <point x="425" y="140"/>
      <point x="425" y="60" type="curve" smooth="yes"/>
      <point x="425" y="-35"/>
      <point x="363" y="-106"/>
      <point x="254" y="-106" type="curve" smooth="yes"/>
      <point x="135" y="-106"/>
      <point x="67" y="-25"/>
      <point x="43" y="55" type="curve"/>
      <point x="2" y="26" type="line"/>
      <point x="32" y="-78"/>
      <point x="121" y="-150"/>
      <point x="254" y="-150" type="curve" smooth="yes"/>
      <point x="396" y="-150"/>
      <point x="491" y="-65"/>
      <point x="491" y="56" type="curve" smooth="yes"/>
      <point x="491" y="134"/>
      <point x="447" y="202"/>
      <point x="324" y="224" type="curve"/>
      <point x="435" y="237"/>
      <point x="510" y="303"/>
      <point x="510" y="400" type="curve" smooth="yes"/>
      <point x="510" y="498"/>
      <point x="431" y="558"/>
    </contour>
  </outline>
</glyph>
<glyph name="tilde_acute.uc" format="1">
  <advance width="568"/>
  <outline>
    <contour>
      <point x="184" y="767" type="line"/>
      <point x="197" y="808"/>
      <point x="210" y="831"/>
      <point x="238" y="831" type="curve" smooth="yes"/>
      <point x="280" y="831"/>
      <point x="301" y="769"/>
      <point x="370" y="769" type="curve" smooth="yes"/>
      <point x="418" y="769"/>
      <point x="452" y="802"/>
      <point x="474" y="867" type="curve"/>
      <point x="438" y="883" type="line"/>
      <point x="421" y="841"/>
      <point x="405" y="818"/>
      <point x="380" y="818" type="curve" smooth="yes"/>
      <point x="332" y="818"/>
      <point x="314" y="880"/>
      <point x="247" y="880" type="curve" smooth="yes"/>
      <point x="193" y="880"/>
      <point x="167" y="848"/>
      <point x="148" y="784" type="curve"/>
    </contour>
    <contour>
      <point x="346" y="1019" type="curve" smooth="yes"/>
      <point x="267" y="935" type="line"/>
      <point x="264" y="917" type="line"/>
      <point x="284" y="917" type="line"/>
      <point x="384" y="975" type="line" smooth="yes"/>
      <point x="421" y="995"/>
      <point x="440" y="1007"/>
      <point x="440" y="1031" type="curve" smooth="yes"/>
      <point x="440" y="1047"/>
      <point x="429" y="1061"/>
      <point x="408" y="1061" type="curve" smooth="yes"/>
      <point x="387" y="1061"/>
      <point x="371" y="1046"/>
    </contour>
    <contour>
      <point x="254" y="694" type="move" name="_top"/>
    </contour>
  </outline>
</glyph>
<glyph name="tildecomb" format="1">
  <advance width="0"/>
  <outline>
    <component base="tilde" xOffset="-558"/>
    <contour>
      <point x="3" y="516" type="move" name="_top"/>
    </contour>
  </outline>
</glyph>
<glyph name="two.den" format="1">
  <advance width="324"/>
  <outline>
    <contour>
      <point x="-29" y="0" type="line"/>
      <point x="239" y="0" type="line"/>
      <point x="257" y="102" type="line"/>
      <point x="225" y="102" type="line"/>
      <point x="213" y="64" type="line" smooth="yes"/>
      <point x="207" y="45"/>
      <point x="190" y="41"/>
      <point x="145" y="41" type="curve" smooth="yes"/>
      <point x="30" y="41" type="line"/>
      <point x="158" y="104"/>
      <point x="262" y="162"/>
      <point x="262" y="251" type="curve" smooth="yes"/>
      <point x="262" y="307"/>
      <point x="221" y="346"/>
      <point x="142" y="346" type="curve" smooth="yes"/>
      <point x="90" y="346"/>
      <point x="49" y="325"/>
      <point x="27" y="308" type="curve"/>
      <point x="17" y="242" type="line"/>
      <point x="69" y="242" type="line"/>
      <point x="77" y="294" type="line"/>
      <point x="94" y="305"/>
      <point x="115" y="312"/>
      <point x="140" y="312" type="curve" smooth="yes"/>
      <point x="182" y="312"/>
      <point x="203" y="290"/>
      <point x="203" y="252" type="curve" smooth="yes"/>
      <point x="203" y="169"/>
      <point x="114" y="122"/>
      <point x="-20" y="48" type="curve"/>
    </contour>
  </outline>
</glyph>
<glyph name="two.sup" format="1">
  <advance width="324"/>
  <outline>
    <contour>
      <point x="48" y="369" type="line"/>
      <point x="316" y="369" type="line"/>
      <point x="334" y="471" type="line"/>
      <point x="302" y="471" type="line"/>
      <point x="290" y="433" type="line" smooth="yes"/>
      <point x="284" y="414"/>
      <point x="267" y="410"/>
      <point x="222" y="410" type="curve" smooth="yes"/>
      <point x="107" y="410" type="line"/>
      <point x="235" y="473"/>
      <point x="339" y="531"/>
      <point x="339" y="620" type="curve" smooth="yes"/>
      <point x="339" y="676"/>
      <point x="298" y="715"/>
      <point x="219" y="715" type="curve" smooth="yes"/>
      <point x="167" y="715"/>
      <point x="126" y="694"/>
      <point x="104" y="677" type="curve"/>
      <point x="94" y="611" type="line"/>
      <point x="146" y="611" type="line"/>
      <point x="154" y="663" type="line"/>
      <point x="171" y="674"/>
      <point x="192" y="681"/>
      <point x="217" y="681" type="curve" smooth="yes"/>
      <point x="259" y="681"/>
      <point x="280" y="659"/>
      <point x="280" y="621" type="curve" smooth="yes"/>
      <point x="280" y="538"/>
      <point x="191" y="491"/>
      <point x="57" y="417" type="curve"/>
    </contour>
  </outline>
</glyph>
<glyph name="uni20B4.proportional" format="1">
  <advance width="613"/>
  <outline>
    <contour>
      <point x="65" y="461" type="line"/>
      <point x="57" y="419" type="line"/>
      <point x="592" y="419" type="line"/>
      <point x="599" y="461" type="line"/>
      <point x="519" y="461" type="line"/>
      <point x="544" y="490"/>
      <point x="559" y="530"/>
      <point x="559" y="571" type="curve" smooth="yes"/>
      <point x="559" y="663"/>
      <point x="488" y="720"/>
      <point x="367" y="720" type="curve" smooth="yes"/>
      <point x="278" y="720"/>
      <point x="209" y="687"/>
      <point x="177" y="656" type="curve"/>
      <point x="161" y="558" type="line"/>
      <point x="230" y="558" type="line"/>
      <point x="243" y="645" type="line"/>
      <point x="274" y="664"/>
      <point x="316" y="676"/>
      <point x="365" y="676" type="curve" smooth="yes"/>
      <point x="450" y="676"/>
      <point x="499" y="636"/>
      <point x="499" y="572" type="curve" smooth="yes"/>
      <point x="499" y="529"/>
      <point x="478" y="489"/>
      <point x="443" y="461" type="curve"/>
    </contour>
    <contour>
      <point x="286" y="-10" type="curve" smooth="yes"/>
      <point x="384" y="-10"/>
      <point x="453" y="28"/>
      <point x="493" y="64" type="curve"/>
      <point x="511" y="177" type="line"/>
      <point x="441" y="177" type="line"/>
      <point x="424" y="74" type="line"/>
      <point x="390" y="49"/>
      <point x="346" y="34"/>
      <point x="288" y="34" type="curve" smooth="yes"/>
      <point x="193" y="34"/>
      <point x="128" y="80"/>
      <point x="128" y="161" type="curve" smooth="yes"/>
      <point x="128" y="206"/>
      <point x="147" y="248"/>
      <point x="181" y="274" type="curve"/>
      <point x="566" y="274" type="line"/>
      <point x="573" y="316" type="line"/>
      <point x="39" y="316" type="line"/>
      <point x="31" y="274" type="line"/>
      <point x="106" y="274" type="line"/>
      <point x="82" y="246"/>
      <point x="66" y="209"/>
      <point x="66" y="164" type="curve" smooth="yes"/>
      <point x="66" y="53"/>
      <point x="159" y="-10"/>
    </contour>
  </outline>
</glyph>
<glyph name="whitediamond" format="1">
  <advance width="622"/>
  <outline>
    <contour>
      <point x="575" y="313" type="line"/>
      <point x="314" y="574" type="line"/>
      <point x="53" y="313" type="line"/>
      <point x="314" y="52" type="line"/>
    </contour>
    <contour>
      <point x="496" y="313" type="line"/>
      <point x="314" y="131" type="line"/>
      <point x="132" y="313" type="line"/>
      <point x="314" y="495" type="line"/>
    </contour>
  </outline>
</glyph>
<glyph name="zero.den" format="1">
  <advance width="326"/>
  <outline>
    <contour>
      <point x="-4" y="140" type="curve" smooth="yes"/>
      <point x="-4" y="61"/>
      <point x="35" y="-6"/>
      <point x="115" y="-6" type="curve" smooth="yes"/>
      <point x="226" y="-6"/>
      <point x="275" y="113"/>
      <point x="275" y="201" type="curve" smooth="yes"/>
      <point x="275" y="280"/>
      <point x="235" y="347"/>
      <point x="155" y="347" type="curve"/>
      <point x="45" y="347"/>
      <point x="-4" y="228"/>
    </contour>
    <contour>
      <point x="60" y="190" type="curve" smooth="yes"/>
      <point x="73" y="252"/>
      <point x="101" y="314"/>
      <point x="155" y="314" type="curve"/>
      <point x="198" y="314"/>
      <point x="217" y="278"/>
      <point x="217" y="219" type="curve" smooth="yes"/>
      <point x="217" y="197"/>
      <point x="215" y="174"/>
      <point x="210" y="151" type="curve" smooth="yes"/>
      <point x="198" y="89"/>
      <point x="169" y="27"/>
      <point x="116" y="27" type="curve"/>
      <point x="73" y="27"/>
      <point x="53" y="63"/>
      <point x="53" y="122" type="curve" smooth="yes"/>
      <point x="53" y="144"/>
      <point x="56" y="167"/>
    </contour>
  </outline>
</glyph>
<glyph name="zero.sub" format="1">
  <advance width="326"/>
  <outline>
    <contour>
      <point x="-19" y="40" type="curve" smooth="yes"/>
      <point x="-19" y="-39"/>
      <point x="20" y="-106"/>
      <point x="100" y="-106" type="curve" smooth="yes"/>
      <point x="211" y="-106"/>
      <point x="260" y="13"/>
      <point x="260" y="101" type="curve" smooth="yes"/>
      <point x="260" y="180"/>
      <point x="220" y="247"/>
      <point x="140" y="247" type="curve"/>
      <point x="30" y="247"/>
      <point x="-19" y="128"/>
    </contour>
    <contour>
      <point x="45" y="90" type="curve" smooth="yes"/>
      <point x="58" y="152"/>
      <point x="86" y="214"/>
      <point x="140" y="214" type="curve"/>
      <point x="183" y="214"/>
      <point x="202" y="178"/>
      <point x="202" y="119" type="curve" smooth="yes"/>
      <point x="202" y="97"/>
      <point x="200" y="74"/>
      <point x="195" y="51" type="curve" smooth="yes"/>
      <point x="183" y="-11"/>
      <point x="154" y="-73"/>
      <point x="101" y="-73" type="curve"/>
      <point x="58" y="-73"/>
      <point x="38" y="-37"/>
      <point x="38" y="22" type="curve" smooth="yes"/>
      <point x="38" y="44"/>
      <point x="41" y="67"/>
    </contour>
  </outline>
</glyph>
